{"glyphs":{"0":{"ha":603,"x_min":0,"x_max":0,"o":"m 639 489 b 644 469 642 489 644 478 b 639 489 644 433 628 489 z m 500 378 b 483 335 500 360 483 356 b 486 315 483 329 486 319 b 460 283 486 297 467 314 b 419 217 456 267 438 238 b 386 169 401 196 386 175 b 290 133 386 154 328 133 b 203 164 254 133 224 164 b 188 299 203 164 188 214 b 243 501 188 347 222 475 b 322 606 264 528 289 596 b 376 660 343 611 357 660 b 382 658 378 660 381 658 b 413 678 407 649 393 678 b 425 664 421 678 425 672 b 453 651 425 657 439 651 b 471 635 474 651 471 642 b 483 625 471 629 472 625 b 506 583 499 625 506 614 b 503 546 506 575 503 558 b 511 525 503 535 506 525 b 519 513 522 525 535 542 b 510 465 514 501 510 481 b 494 406 510 433 494 425 b 500 378 494 399 500 385 z m 631 639 b 619 660 631 646 626 651 b 485 781 576 715 504 781 b 439 808 456 781 489 808 b 400 794 417 808 400 801 b 374 781 400 788 388 781 b 347 744 354 781 347 774 b 313 689 347 717 339 701 b 192 567 271 668 192 588 b 139 499 192 547 139 519 b 128 460 139 490 135 471 b 88 247 104 417 88 313 b 99 190 88 217 90 196 b 113 161 107 186 113 172 b 181 83 113 140 126 126 b 289 51 207 63 246 51 b 425 85 333 51 383 63 b 490 133 461 104 490 126 b 540 207 490 153 536 189 b 604 325 544 225 604 299 b 603 335 604 329 603 331 b 658 501 603 368 658 475 b 636 561 658 531 636 526 b 639 590 636 571 639 583 b 631 604 639 600 636 604 b 610 599 622 604 613 599 b 608 600 608 599 608 600 b 631 639 608 604 631 631 z "},"1":{"ha":374,"x_min":0,"x_max":0,"o":"m 249 450 b 229 407 249 438 229 425 b 194 292 229 376 224 356 b 172 229 182 264 172 238 b 163 218 172 222 172 218 b 149 181 156 218 149 201 b 132 136 149 160 142 139 b 117 44 122 133 117 92 l 117 25 b 192 -83 117 -37 119 -83 b 301 75 229 -83 289 13 b 319 132 304 92 313 117 b 364 336 333 161 364 306 b 372 350 364 344 361 350 b 392 419 379 350 388 381 b 432 668 399 483 432 601 b 393 721 432 706 419 721 b 357 733 374 721 363 733 b 113 589 336 733 124 589 b 97 572 101 589 97 581 b 128 542 97 560 108 542 b 219 585 158 542 190 581 b 292 615 250 590 265 615 b 315 597 306 615 315 610 b 297 564 315 583 306 569 b 258 469 282 554 281 469 b 249 450 242 469 249 458 z "},"2":{"ha":594,"x_min":0,"x_max":0,"o":"m 157 374 b 169 388 167 374 169 379 b 144 464 169 410 144 451 b 163 517 144 483 150 504 b 390 611 190 544 319 611 b 435 601 404 611 418 607 b 506 553 488 582 506 574 b 482 472 506 538 482 482 l 482 469 b 326 297 482 469 347 297 b 185 126 307 297 185 149 b 169 113 185 118 178 113 b 39 -29 150 113 39 -8 b 25 -46 39 -39 32 -46 b 13 -67 18 -46 13 -56 b -1 -86 13 -78 6 -86 b -14 -119 -8 -86 -14 -101 b 13 -153 -14 -143 -7 -153 b 39 -168 26 -153 39 -158 b 40 -176 39 -174 39 -176 b 61 -153 44 -176 56 -153 b 65 -169 64 -153 65 -157 b 85 -189 65 -183 69 -189 b 203 -162 119 -189 185 -172 b 381 -150 217 -156 296 -150 b 576 -65 544 -150 576 -142 b 425 6 576 -19 521 6 l 374 6 b 308 13 339 6 308 6 b 344 63 308 19 324 42 b 525 265 386 104 488 225 b 535 281 532 272 535 278 b 531 288 535 285 531 285 b 544 299 531 289 533 292 b 568 332 558 306 568 321 b 594 381 568 343 579 365 b 621 479 614 401 621 426 b 632 543 621 517 625 543 b 640 561 640 543 644 542 b 490 686 626 633 561 686 b 424 678 469 686 442 678 b 410 682 414 678 410 678 b 400 693 410 689 407 693 b 321 669 389 693 367 686 b 111 447 197 625 111 532 b 157 374 111 411 138 374 z "},"3":{"ha":540,"x_min":0,"x_max":0,"o":"m 558 113 b 526 151 554 113 526 146 l 528 153 b 560 114 532 153 560 119 z m 419 569 b 357 474 419 542 406 524 b 299 410 325 440 299 411 b 258 364 299 408 281 388 b 221 293 233 338 221 315 b 306 192 221 265 282 192 b 358 146 310 192 333 171 l 404 100 l 372 65 b 336 19 354 46 339 26 b 185 -8 332 7 215 -8 b 178 -8 181 -8 178 -10 b 79 14 174 3 119 14 b 17 -33 43 14 17 3 b 71 -133 17 -68 51 -133 b 86 -136 78 -133 86 -124 b 179 -171 86 -151 168 -168 b 236 -187 196 -174 207 -187 b 375 -151 281 -187 350 -171 b 422 -125 393 -136 414 -125 b 533 -19 443 -125 529 -43 b 565 24 536 -8 551 11 b 581 46 579 36 588 46 b 571 92 571 46 571 72 b 531 167 571 133 554 167 b 510 192 519 167 510 178 b 494 218 510 206 503 218 b 450 244 485 218 465 229 b 368 274 433 261 401 272 b 326 286 342 275 326 276 b 414 386 326 299 353 324 b 483 469 451 425 483 463 b 493 483 483 478 488 483 b 536 607 519 483 536 572 b 522 654 536 633 532 654 b 460 685 517 654 472 685 b 457 682 458 685 457 683 b 450 676 457 678 454 676 b 389 700 432 676 390 700 b 354 719 378 701 367 719 b 306 706 346 719 333 715 b 126 531 208 674 126 624 b 150 485 126 510 133 493 b 193 472 169 475 193 486 b 219 472 193 461 200 460 b 244 513 236 483 244 500 b 219 535 244 525 236 535 b 194 546 203 535 194 539 b 229 593 194 554 206 571 b 340 635 260 622 303 635 b 419 569 389 635 419 615 z "},"4":{"ha":547,"x_min":0,"x_max":0,"o":"m 453 390 b 433 338 453 378 433 347 b 394 261 433 310 422 261 b 332 285 372 261 347 272 b 319 286 314 300 311 300 b 318 274 326 275 325 271 b 257 303 311 276 285 290 l 206 325 l 240 367 b 307 433 260 389 289 419 b 332 469 321 444 332 460 b 331 474 332 471 331 472 b 338 478 322 488 332 478 b 379 510 350 478 379 500 b 451 596 379 517 410 551 b 532 697 492 639 528 685 b 551 721 536 711 544 721 b 564 740 558 721 564 729 b 578 761 564 751 571 761 b 586 768 583 761 586 764 b 547 808 586 781 565 806 b 529 800 532 811 529 807 b 239 478 529 779 421 658 l 51 292 l 74 246 b 304 119 101 189 213 128 b 372 43 371 114 372 111 l 372 35 b 364 -19 372 7 369 -19 b 358 -26 360 -19 358 -22 b 421 -92 358 -49 389 -92 b 497 49 461 -92 496 -33 b 543 278 499 106 531 239 b 578 390 546 289 564 390 b 606 456 596 390 606 422 b 557 532 606 493 593 532 b 506 486 532 532 506 513 b 497 463 506 467 511 463 b 449 399 483 463 449 417 b 453 390 449 394 453 394 z "},"5":{"ha":501,"x_min":0,"x_max":0,"o":"m 474 408 b 406 424 474 424 422 424 l 401 424 b 335 404 358 424 369 404 b 307 417 321 404 307 408 b 286 431 307 425 299 431 b 272 418 269 431 272 425 b 208 407 272 410 228 407 b 192 415 196 407 192 408 b 207 458 192 422 197 435 b 274 675 225 500 269 646 b 311 697 275 690 283 697 b 550 674 378 697 517 674 b 629 754 611 674 629 699 b 551 824 629 779 581 824 b 511 810 543 824 522 810 b 500 817 506 810 504 817 b 454 783 492 817 463 783 b 418 794 449 783 428 794 b 413 789 415 794 413 793 b 351 769 413 779 375 769 b 333 776 342 769 333 771 b 310 778 333 789 318 778 b 242 800 293 778 256 800 b 203 751 231 800 215 764 b 179 681 190 739 181 707 b 114 376 176 610 114 443 b 163 329 114 339 121 329 b 286 347 190 329 244 347 b 342 319 304 347 319 339 l 381 288 l 314 258 b 131 140 236 224 131 232 b 188 86 131 111 149 86 b 215 72 203 86 215 79 b 254 60 215 65 232 60 b 294 74 276 60 294 65 b 299 81 294 79 296 81 b 329 64 306 81 322 64 b 333 71 332 64 333 65 b 357 86 333 79 343 86 b 372 89 368 86 372 88 b 353 107 372 93 353 100 b 383 113 353 111 361 113 b 419 128 417 113 419 117 b 486 165 419 143 486 151 b 513 200 486 171 496 185 b 546 274 535 221 546 247 b 506 356 546 303 532 332 b 472 400 486 372 472 390 b 474 408 472 403 474 406 z "},"6":{"ha":585,"x_min":0,"x_max":0,"o":"m 468 210 b 451 196 468 203 463 200 b 393 128 418 183 394 156 b 365 110 392 110 383 106 b 349 99 342 115 349 108 b 329 92 349 93 340 92 b 196 176 272 92 196 125 b 290 222 196 200 226 213 b 419 256 333 228 393 256 b 468 210 440 256 468 232 z m 575 274 b 586 318 575 286 586 307 b 565 347 586 335 576 347 b 542 353 556 347 542 335 b 407 404 542 396 465 404 b 308 386 363 404 319 397 b 268 376 303 381 285 376 b 231 350 226 376 261 350 b 214 368 219 350 214 358 b 224 390 214 375 217 383 b 264 476 239 406 264 458 b 474 674 264 524 408 674 b 582 608 518 674 568 644 b 614 567 592 583 606 567 b 621 578 618 567 621 569 b 639 574 621 601 632 574 b 661 632 651 574 661 614 b 658 642 661 638 660 642 b 638 681 650 642 657 669 b 624 692 625 688 624 689 l 624 699 b 488 756 624 739 540 756 b 431 744 464 756 443 751 b 388 743 413 733 401 743 b 313 683 364 743 313 699 b 300 675 313 669 310 675 b 178 550 258 675 178 550 b 174 536 178 543 189 536 b 158 510 165 536 158 524 b 144 476 158 496 151 481 b 118 401 128 467 136 408 b 83 235 106 397 100 371 b 79 190 81 215 79 200 b 93 165 79 172 83 165 b 101 163 99 165 101 164 b 81 136 101 157 81 143 b 92 103 81 129 83 118 b 251 -15 121 46 189 -15 b 579 257 360 -15 579 103 b 575 274 579 267 575 267 z "},"7":{"ha":544,"x_min":0,"x_max":0,"o":"m 204 258 b 190 238 197 258 190 249 b 178 218 190 226 185 218 b 122 18 163 218 122 50 b 133 7 122 8 125 7 b 132 -22 149 7 149 1 b 111 -69 118 -42 111 -56 b 172 -125 111 -97 146 -125 b 190 -112 182 -125 190 -121 b 217 -99 190 -106 203 -99 b 243 -68 235 -99 243 -90 b 283 0 243 -28 283 -32 b 417 271 283 19 400 258 b 510 428 425 278 499 424 b 518 457 524 433 503 457 b 546 492 525 457 538 472 b 588 546 554 511 574 536 b 614 579 601 556 614 571 b 633 632 614 588 622 613 b 651 719 643 651 651 690 b 597 785 651 772 640 785 b 572 779 588 785 578 782 b 563 800 547 763 581 800 b 507 774 542 800 538 774 b 489 800 478 774 493 800 b 476 790 485 800 481 797 b 426 776 474 785 450 778 b 164 679 372 774 164 711 b 146 668 164 674 157 668 b 115 644 126 668 115 657 b 169 601 115 624 154 601 b 164 615 176 601 175 608 b 171 628 147 626 149 628 b 311 690 200 628 279 690 b 342 692 322 690 335 685 b 461 715 346 696 424 715 b 482 708 474 715 482 714 b 468 694 482 700 476 694 b 454 669 461 694 454 683 b 401 571 454 636 401 606 b 390 556 401 550 397 556 b 346 496 374 556 346 508 b 318 457 346 492 333 475 b 263 374 301 439 276 401 b 226 324 249 346 232 324 b 204 258 221 324 214 258 z "},"8":{"ha":481,"x_min":0,"x_max":0,"o":"m 361 211 b 303 92 361 129 325 92 b 264 128 282 92 264 110 b 267 138 264 131 265 135 b 325 297 283 179 304 297 b 361 211 342 297 361 233 z m 324 461 b 306 478 318 461 314 467 b 265 543 281 510 293 515 b 246 601 254 554 246 581 b 390 694 246 658 306 694 b 444 663 439 694 444 690 b 419 599 444 629 419 622 b 415 569 419 581 431 569 b 376 525 401 569 376 535 b 379 522 376 524 378 522 b 381 519 381 522 381 521 b 324 461 381 507 332 461 z m 392 71 b 401 86 392 79 396 86 b 443 226 426 86 443 164 b 425 303 443 261 438 293 b 415 333 418 308 415 319 b 450 403 415 364 432 403 b 518 542 471 403 488 438 b 557 631 531 585 549 625 b 574 693 567 636 574 665 b 446 799 574 758 521 799 b 299 768 399 799 340 775 b 132 614 217 754 132 694 b 219 431 132 567 167 492 b 258 361 246 400 258 375 b 247 350 258 354 256 350 b 182 143 225 350 182 213 b 289 7 182 60 225 7 b 392 71 332 7 392 43 z "},"9":{"ha":618,"x_min":0,"x_max":0,"o":"m 438 615 l 438 614 b 396 572 438 610 421 593 b 276 457 301 492 278 469 b 269 431 274 439 272 431 b 246 446 267 431 246 467 b 233 431 246 436 240 431 b 219 457 226 431 219 443 b 233 483 219 471 226 483 b 246 501 240 483 246 490 b 303 581 246 511 272 549 b 457 653 360 640 388 642 b 435 617 457 650 435 624 b 438 615 435 615 436 615 z m 186 619 b 160 589 169 619 183 589 b 121 513 126 589 149 532 b 103 429 113 507 103 463 b 185 325 103 363 136 325 b 292 369 215 325 253 339 b 432 535 383 439 432 497 b 438 546 432 542 428 556 b 443 544 439 544 442 544 b 489 585 457 544 479 585 b 490 581 490 585 490 583 b 442 311 490 535 449 311 b 431 267 436 311 431 290 b 404 199 431 239 421 214 b 386 163 386 182 386 172 b 314 79 386 150 328 79 b 313 81 313 79 313 79 l 311 81 b 260 43 306 81 268 43 b 240 53 253 43 247 53 b 214 13 228 53 214 31 b 315 -26 214 -21 264 -26 b 418 -10 353 -26 392 -21 b 471 24 447 3 471 18 b 485 33 471 29 476 33 b 543 110 508 33 533 65 b 564 153 549 133 558 153 b 600 240 578 153 600 210 b 596 261 600 249 596 256 b 599 264 596 264 597 264 b 611 261 601 264 607 261 b 615 268 614 261 615 263 b 640 431 615 331 638 329 b 668 675 643 560 668 549 b 657 747 668 714 664 747 b 642 778 649 747 643 763 b 624 781 640 813 633 781 b 585 803 613 781 596 803 b 519 750 572 803 519 763 b 526 742 519 747 522 743 b 490 742 536 738 519 738 b 417 747 461 746 438 747 b 336 724 376 747 353 740 b 293 708 328 715 307 708 b 207 625 268 708 207 649 b 186 619 207 617 196 619 z "}," ":{"ha":279,"x_min":0,"x_max":0,"o":""},"!":{"ha":271,"x_min":0,"x_max":0,"o":"m 231 958 b 232 949 231 954 232 951 b 217 933 239 926 229 933 b 204 896 208 933 204 921 b 188 717 204 800 197 717 b 171 669 178 717 171 690 b 183 635 171 656 183 643 b 179 626 183 632 182 628 b 154 571 167 618 154 588 b 161 560 154 564 157 560 b 168 546 167 560 168 554 b 147 488 168 529 160 503 b 121 332 136 474 121 397 b 176 254 121 296 153 254 b 236 358 207 254 226 333 b 265 474 250 393 244 447 b 296 572 272 482 288 572 b 306 586 304 572 306 579 b 303 613 306 594 303 604 b 317 697 303 651 310 697 l 319 697 b 351 958 333 697 351 836 b 296 1068 351 1024 340 1068 b 231 958 261 1068 231 1000 z m 215 72 b 210 53 215 61 213 53 b 196 83 207 53 196 72 b 203 92 196 88 197 92 b 215 72 210 92 215 83 z m 75 -31 b 150 -78 75 -42 128 -78 b 231 22 197 -78 231 -36 b 175 119 231 82 206 119 b 111 58 150 119 111 85 b 97 39 111 47 106 39 b 89 26 90 39 89 33 b 92 -10 89 15 92 1 b 75 -31 92 -25 75 -25 z "},"\"":{"ha":442,"x_min":0,"x_max":0,"o":"m 522 831 b 519 863 522 842 519 853 b 526 888 519 871 521 879 b 553 951 544 914 553 933 b 518 1001 553 978 539 1001 b 481 986 507 1001 494 996 b 426 933 465 975 444 933 b 422 935 425 933 424 935 b 397 903 410 935 397 913 b 400 899 397 900 397 899 b 401 882 407 899 407 892 b 368 749 389 861 368 774 b 371 742 368 744 369 742 b 374 736 374 742 374 739 b 364 688 374 725 364 700 b 408 615 364 654 388 615 b 522 831 425 615 522 775 z m 342 831 b 339 863 342 842 339 853 b 346 888 339 871 340 879 b 372 951 364 914 372 933 b 338 1001 372 978 358 1001 b 300 986 326 1001 314 996 b 246 933 285 975 264 933 b 242 935 244 933 243 935 b 217 903 229 935 217 913 b 219 899 217 900 217 899 b 221 882 226 899 226 892 b 188 749 208 861 188 774 b 190 742 188 744 189 742 b 193 736 193 742 193 739 b 183 688 193 725 183 700 b 228 615 183 654 207 615 b 342 831 244 615 342 775 z "},"#":{"ha":888,"x_min":0,"x_max":0,"o":"m 660 428 b 643 401 660 422 651 411 b 547 288 624 381 585 288 b 514 271 532 288 517 279 b 503 260 511 263 507 260 b 482 297 493 260 482 278 b 607 447 482 368 561 447 b 660 428 635 447 660 439 z m 135 239 b 79 226 119 239 93 226 b 69 229 75 226 74 229 b 22 193 54 229 22 200 b 128 165 22 176 89 165 b 254 174 161 165 208 174 b 294 63 292 174 274 63 b 378 133 324 63 378 129 b 375 156 378 142 347 156 b 401 169 386 156 399 163 b 517 201 407 186 501 192 b 522 188 529 210 531 206 b 474 78 517 174 488 78 b 464 51 468 78 464 65 b 413 -112 464 18 413 -79 b 419 -126 413 -121 415 -126 b 438 -133 428 -126 438 -117 b 464 -117 438 -143 450 -135 b 485 -74 476 -101 485 -85 b 482 -62 485 -69 482 -67 b 517 -19 482 -44 517 -39 b 593 129 517 1 569 104 b 700 207 633 172 603 203 b 783 222 738 208 775 215 b 822 219 799 236 808 219 b 871 247 842 219 871 236 b 804 288 871 274 835 288 b 750 286 783 288 765 286 b 688 299 704 286 688 289 b 707 336 688 301 707 329 b 706 339 707 338 707 339 b 704 340 704 339 704 339 b 804 447 704 354 760 447 b 825 453 821 447 825 439 b 872 463 825 458 847 463 b 913 456 896 463 913 460 b 921 451 913 453 917 451 b 994 469 942 451 994 469 b 999 494 996 469 999 481 b 929 524 999 518 993 524 l 886 524 b 829 535 854 524 829 528 b 840 547 829 542 833 547 b 869 611 850 547 869 589 b 879 625 869 619 869 625 b 911 681 889 625 911 663 b 869 725 911 693 883 725 b 840 701 863 725 854 718 b 822 688 825 685 818 679 b 822 703 826 697 826 703 b 797 661 818 703 807 685 b 754 593 788 638 768 607 b 661 521 719 556 735 521 l 608 521 l 624 563 b 654 625 632 586 644 614 b 669 651 664 636 669 647 b 744 831 669 663 744 807 b 747 843 744 838 735 850 b 775 867 754 839 767 849 b 774 890 788 893 786 899 b 774 900 761 883 761 885 b 781 931 783 911 786 925 b 783 938 775 936 775 939 b 800 935 790 936 796 935 b 810 939 806 935 810 936 b 756 988 810 950 758 988 b 750 964 750 988 750 981 b 739 942 750 944 746 942 b 656 807 725 942 667 807 b 646 781 650 807 646 794 b 635 756 646 767 642 756 b 601 708 628 756 614 735 b 451 506 567 636 478 515 b 322 493 438 500 379 494 b 197 469 243 492 213 486 b 183 447 188 460 183 453 b 225 419 183 433 211 419 b 265 438 238 419 253 425 b 354 449 274 444 314 449 b 435 436 388 449 435 446 b 369 340 435 421 385 347 b 360 313 364 338 360 325 b 253 243 360 256 276 282 b 243 236 249 238 246 236 b 218 253 235 236 229 253 b 154 231 206 253 168 231 b 135 239 143 231 146 239 z "},"$":{"ha":547,"x_min":0,"x_max":0,"o":"m 328 -4 b 311 7 318 -4 311 0 b 328 83 311 24 325 44 b 367 222 338 192 332 222 b 393 203 379 222 393 214 b 392 189 393 197 392 192 b 413 181 392 183 394 182 b 431 178 426 181 431 179 b 418 161 431 175 418 169 b 429 121 418 150 429 135 b 328 -4 429 99 385 -4 z m 254 533 b 233 560 254 546 233 546 b 322 664 233 589 293 664 b 333 688 328 664 332 675 b 338 700 335 696 336 700 b 342 693 339 700 340 697 b 353 685 344 686 349 685 l 361 685 b 365 667 364 685 365 678 b 318 464 365 636 338 464 b 254 533 300 464 254 526 z m 419 626 b 444 676 419 642 444 671 l 443 678 b 471 711 443 683 458 711 b 475 710 472 711 474 711 b 481 708 476 708 479 708 b 494 721 488 708 488 721 b 500 660 497 721 500 689 b 490 576 500 625 496 588 b 457 500 482 560 457 524 b 483 463 457 488 472 463 b 536 519 489 463 536 511 b 535 521 536 521 536 521 b 532 524 533 521 532 522 b 546 553 532 529 538 540 b 572 693 561 576 572 649 b 564 729 572 714 571 729 b 479 792 546 729 504 792 b 474 790 476 792 475 790 b 454 854 458 790 454 813 b 468 956 454 899 468 926 b 456 972 468 967 464 972 b 407 842 422 972 407 896 b 408 819 407 835 408 826 b 332 757 408 794 394 786 b 263 714 292 739 263 721 b 264 706 263 711 264 708 b 257 701 264 703 263 701 b 124 538 196 694 124 588 b 131 525 124 531 125 525 b 149 532 133 525 146 532 l 150 532 b 140 521 150 531 147 528 b 125 483 131 510 125 497 b 176 393 125 458 142 429 b 239 339 206 363 233 339 b 274 275 257 339 274 303 b 271 256 274 268 274 261 b 210 26 260 231 218 76 b 176 3 208 15 193 3 b 118 104 149 3 118 54 b 97 142 118 129 108 142 b 63 60 75 142 63 94 b 158 -74 63 -7 97 -58 b 188 -92 178 -79 188 -83 b 171 -139 188 -101 171 -122 b 174 -150 171 -143 171 -146 b 225 -208 189 -174 175 -208 b 250 -203 244 -208 250 -206 b 232 -186 250 -197 232 -190 b 244 -182 232 -185 235 -182 b 275 -144 260 -182 271 -169 b 349 -87 281 -114 317 -87 b 364 -89 354 -87 358 -89 b 490 -28 388 -89 463 -53 b 556 126 533 13 556 72 b 539 197 556 153 550 176 b 526 231 532 213 526 226 l 526 232 b 529 242 529 235 529 239 b 508 261 529 251 521 261 b 489 285 499 261 489 272 b 389 419 489 313 389 392 b 426 590 389 442 426 590 b 431 589 428 589 429 589 b 436 597 433 589 436 592 b 419 626 436 608 419 615 z "},"%":{"ha":481,"x_min":0,"x_max":0,"o":"m 225 650 b 188 701 206 650 188 671 b 228 783 188 736 214 783 b 274 714 246 783 274 732 b 225 650 274 683 244 650 z m 82 157 b 72 132 76 157 72 144 b 49 90 72 107 49 106 b 92 53 49 75 69 53 b 139 113 117 53 139 82 l 139 121 b 151 124 138 132 144 124 b 228 221 169 124 215 210 b 304 339 247 238 286 325 b 353 425 324 354 353 407 b 351 429 353 426 351 428 b 367 435 347 436 354 439 b 381 442 389 426 381 433 b 417 519 381 461 417 499 b 415 525 417 522 417 524 b 418 531 408 538 414 531 b 514 664 435 531 514 640 b 526 678 514 672 519 678 b 581 756 542 678 565 756 b 593 786 589 756 593 768 b 494 885 593 853 561 885 b 457 874 476 885 461 882 b 367 863 453 868 407 863 b 318 867 338 863 318 864 b 338 886 318 869 338 876 b 308 911 338 897 326 911 b 190 838 260 911 226 874 b 147 715 150 797 147 788 b 224 593 147 636 164 593 b 311 707 269 593 311 642 b 292 782 311 739 300 776 b 288 789 289 783 288 788 b 443 821 288 814 418 803 b 451 824 446 822 447 824 b 497 793 468 824 497 806 b 436 678 497 779 436 688 b 425 664 436 669 432 664 b 406 632 419 664 410 649 b 365 568 401 614 383 586 b 332 525 347 550 332 531 b 254 413 332 513 254 425 b 82 157 254 392 94 157 z m 350 21 b 346 28 347 21 346 24 b 375 78 346 43 360 78 b 385 65 381 78 385 75 b 350 21 385 57 364 21 z m 328 -57 b 461 86 421 -57 461 8 b 454 99 461 96 458 99 b 446 106 444 99 424 81 b 461 131 456 115 461 122 b 375 219 461 151 397 219 b 346 201 365 219 356 214 b 344 182 335 189 335 182 b 356 174 353 182 356 179 b 317 115 356 164 342 143 b 272 33 286 82 272 60 b 328 -57 272 -1 301 -57 z "},"&":{"ha":543,"x_min":0,"x_max":0,"o":"m 328 44 b 272 -11 328 11 306 -11 b 200 14 233 -11 200 -8 b 231 106 200 47 213 81 b 249 143 242 121 249 135 b 247 151 249 146 247 150 b 261 156 247 154 250 156 b 328 44 283 156 328 75 z m 318 768 b 335 756 328 768 335 763 b 354 742 335 749 343 742 b 367 733 365 742 367 738 b 365 721 367 729 365 724 b 371 717 365 718 367 717 b 465 625 388 717 465 642 b 476 613 465 617 469 613 b 489 574 485 613 489 596 b 474 494 489 549 483 515 b 376 381 458 463 388 381 b 375 383 375 381 375 382 l 375 392 b 347 482 375 419 357 482 b 313 599 339 482 325 526 b 282 707 304 647 282 643 b 272 749 282 736 279 749 b 258 746 267 749 261 746 b 256 749 257 746 256 747 b 258 757 256 750 257 753 b 260 765 260 760 260 763 b 249 813 260 782 249 800 b 256 819 249 817 251 819 b 318 768 274 819 299 768 z m 131 824 b 158 665 131 744 154 725 b 225 403 164 590 218 474 b 260 293 228 381 260 324 b 203 192 260 265 243 238 b 126 21 161 143 126 68 b 154 -28 126 7 139 -14 b 172 -51 165 -39 172 -47 b 171 -53 172 -53 172 -53 l 169 -53 b 215 -81 169 -58 204 -81 b 249 -71 224 -81 239 -71 b 257 -81 253 -71 257 -74 b 261 -90 257 -87 258 -90 b 267 -85 263 -90 264 -89 b 301 -67 272 -78 288 -69 b 340 -46 324 -62 331 -46 b 360 -62 344 -46 350 -50 b 413 -94 375 -83 397 -94 b 429 -79 422 -94 429 -89 b 428 -62 429 -74 428 -67 b 435 -53 428 -57 429 -53 b 449 -29 440 -53 447 -42 b 488 65 453 18 461 40 b 525 125 503 79 521 108 b 556 168 535 164 556 133 b 575 218 556 196 575 197 b 549 261 575 236 564 261 b 529 240 539 261 529 251 b 517 221 529 229 524 221 b 504 207 510 221 504 215 b 475 157 504 199 492 176 l 444 121 b 404 293 431 178 418 236 l 468 354 b 522 417 500 386 522 413 b 521 418 521 417 521 417 b 535 449 521 422 526 435 b 556 535 547 468 556 506 b 538 601 556 575 538 576 b 447 729 538 622 464 728 b 407 769 433 729 407 758 b 410 774 407 771 410 772 b 361 806 410 781 361 797 b 329 831 361 811 346 824 b 183 910 289 849 233 910 b 131 824 139 910 131 876 z "},"'":{"ha":261,"x_min":0,"x_max":0,"o":"m 342 831 b 339 863 342 842 339 853 b 346 888 339 871 340 879 b 372 951 364 914 372 933 b 338 1001 372 978 358 1001 b 300 986 326 1001 314 996 b 246 933 285 975 264 933 b 242 935 244 933 243 935 b 217 903 229 935 217 913 b 219 899 217 900 217 899 b 221 882 226 899 226 892 b 188 749 208 861 188 774 b 190 742 188 744 189 742 b 193 736 193 742 193 739 b 183 688 193 725 183 700 b 228 615 183 654 207 615 b 342 831 244 615 342 775 z "},"(":{"ha":311,"x_min":0,"x_max":0,"o":"m 93 349 b 111 300 93 332 111 308 b 110 297 111 299 111 297 b 92 174 100 294 92 224 b 110 68 92 107 110 133 b 228 -203 110 -31 189 -203 b 244 -168 242 -203 244 -185 b 207 110 244 -94 207 32 b 218 213 207 128 218 149 l 218 260 b 224 339 218 306 219 339 b 244 510 232 339 242 424 b 265 560 246 557 265 519 b 374 865 265 604 349 838 b 396 906 386 878 396 897 b 454 989 396 922 454 971 b 481 1039 454 1007 481 1017 b 447 1081 481 1058 468 1081 b 422 1068 435 1081 422 1075 b 411 1058 422 1058 418 1058 b 318 972 396 1058 318 988 b 265 888 318 957 265 908 b 240 835 265 878 254 854 b 199 739 221 808 199 753 b 200 736 199 736 199 736 b 151 614 200 736 158 618 b 121 482 144 610 125 482 b 93 349 121 482 93 351 z "},")":{"ha":310,"x_min":0,"x_max":0,"o":"m 372 529 b 354 578 372 546 354 569 b 357 581 354 579 356 581 b 374 704 367 583 374 654 b 357 811 374 771 357 746 b 238 1081 357 910 276 1081 b 221 1046 224 1081 221 1063 b 258 768 221 972 258 846 b 247 667 258 750 247 731 b 249 619 247 651 249 635 b 242 540 249 574 246 540 b 221 369 233 540 224 456 b 200 318 219 322 200 358 b 93 13 200 274 118 40 b 69 -28 81 0 69 -19 b 11 -110 69 -44 11 -92 b -15 -160 11 -128 -15 -137 b 19 -203 -15 -179 -1 -203 b 44 -189 32 -203 44 -196 b 56 -179 44 -179 49 -179 b 147 -94 71 -179 147 -110 b 200 -10 147 -79 200 -31 b 225 43 200 0 211 24 b 267 139 244 69 267 125 b 265 143 267 142 267 143 b 315 264 265 143 307 260 b 346 397 322 268 342 397 b 372 529 346 397 372 526 z "},"*":{"ha":453,"x_min":0,"x_max":0,"o":"m 278 804 b 213 768 253 804 235 768 b 188 713 194 768 188 758 b 201 697 188 701 190 697 b 283 725 229 697 261 711 b 313 738 296 733 306 738 b 328 697 324 738 328 725 b 339 664 328 679 332 664 b 347 638 357 664 329 638 b 401 706 365 638 401 683 b 418 721 401 717 408 721 b 454 701 433 721 454 710 b 488 690 454 694 469 690 b 519 717 526 690 503 717 b 532 736 528 717 532 726 b 521 757 532 746 528 754 b 499 818 513 760 499 797 b 513 842 499 831 503 838 b 536 872 536 851 513 872 b 553 894 547 872 554 882 b 513 917 550 910 536 917 b 440 903 494 917 461 903 b 429 956 429 903 429 915 b 396 1035 429 1003 422 1018 b 357 1054 376 1047 364 1054 b 331 933 335 1054 356 933 b 238 969 315 933 254 969 b 218 951 225 969 218 963 b 263 879 218 935 232 910 b 306 813 290 851 306 826 b 294 801 306 806 303 801 b 278 804 290 801 283 804 z "},"+":{"ha":439,"x_min":0,"x_max":0,"o":"m 499 399 b 413 456 499 424 457 456 b 365 478 379 456 367 461 b 343 583 358 568 356 583 b 324 597 328 583 324 582 b 314 608 324 604 319 608 b 250 465 267 608 256 526 b 203 457 250 460 231 457 b 136 460 183 457 153 460 b 94 429 101 460 94 453 b 165 378 94 399 122 378 b 215 357 201 378 215 375 b 201 285 215 343 201 304 b 258 235 201 253 221 235 b 283 256 283 235 289 239 b 311 271 265 301 328 207 b 310 281 310 275 310 278 b 322 319 310 299 322 308 b 319 328 322 322 321 325 b 340 336 307 349 340 318 b 499 399 340 365 499 342 z "},",":{"ha":275,"x_min":0,"x_max":0,"o":"m 78 -7 b 81 -11 78 -10 79 -11 b 89 -10 83 -11 86 -10 b 94 -17 92 -10 94 -11 b 76 -54 94 -32 83 -54 b 29 -171 63 -54 29 -144 b 49 -197 29 -187 36 -197 b 193 -57 65 -197 193 -74 b 204 -42 193 -47 197 -42 b 226 4 213 -42 226 -17 b 164 121 226 47 189 121 b 140 126 153 121 140 114 b 131 140 140 135 138 140 b 61 49 94 140 61 89 b 75 24 61 35 65 24 b 78 -7 89 24 78 3 z "},"-":{"ha":463,"x_min":0,"x_max":0,"o":"m 175 332 b 143 333 164 332 153 333 b 96 318 122 333 107 318 b 89 319 93 318 90 318 b 82 293 76 328 72 311 b 244 247 100 261 149 247 b 358 261 301 247 353 254 b 418 274 364 268 390 274 b 493 319 458 274 493 289 b 385 343 493 325 406 343 b 346 332 372 343 354 332 b 340 339 343 332 340 333 b 326 347 340 344 335 347 b 256 329 313 347 281 329 b 204 343 247 329 218 343 b 175 332 194 343 194 332 z "},".":{"ha":274,"x_min":0,"x_max":0,"o":"m 185 139 b 181 135 182 139 181 138 b 189 106 181 126 189 111 b 188 103 189 104 189 103 b 169 114 185 103 179 106 b 124 136 151 128 136 136 b 100 118 113 136 104 131 b 64 61 92 94 64 85 b 126 -24 64 40 104 -24 b 197 33 157 -24 194 11 b 218 54 200 57 207 54 b 226 71 224 54 226 63 b 207 118 226 90 207 100 b 185 139 207 126 197 139 z "},"/":{"ha":517,"x_min":0,"x_max":0,"o":"m 632 751 l 631 751 b 603 740 626 751 617 747 b 463 585 569 722 499 644 b 415 525 443 554 422 526 b 349 429 408 524 379 481 b 253 279 318 378 275 311 b 69 11 217 225 111 54 b -10 -119 40 -21 -10 -104 b -8 -122 -10 -121 -10 -122 b -3 -126 -4 -122 -3 -124 b -15 -153 -3 -133 -15 -147 b -12 -156 -15 -154 -15 -156 b 160 6 40 -156 131 -25 b 313 225 179 26 289 210 b 311 235 321 231 321 235 b 314 246 301 235 303 239 b 411 408 343 264 411 382 b 418 422 411 418 386 413 b 464 460 433 426 454 443 b 606 667 550 593 599 664 b 629 724 617 672 629 706 b 624 735 629 729 628 735 b 632 751 607 735 632 751 z "},":":{"ha":274,"x_min":0,"x_max":0,"o":"m 265 597 b 261 593 263 597 261 596 b 269 564 261 585 269 569 b 268 561 269 563 269 561 b 250 572 265 561 260 564 b 204 594 232 586 217 594 b 181 576 193 594 185 589 b 144 519 172 553 144 543 b 207 435 144 499 185 435 b 278 492 238 435 275 469 b 299 513 281 515 288 513 b 307 529 304 513 307 521 b 288 576 307 549 288 558 b 265 597 288 585 278 597 z m 185 139 b 181 135 182 139 181 138 b 189 106 181 126 189 111 b 188 103 189 104 189 103 b 169 114 185 103 179 106 b 124 136 151 128 136 136 b 100 118 113 136 104 131 b 64 61 92 94 64 85 b 126 -24 64 40 104 -24 b 197 33 157 -24 194 11 b 218 54 200 57 207 54 b 226 71 224 54 226 63 b 207 118 226 90 207 100 b 185 139 207 126 197 139 z "},";":{"ha":275,"x_min":0,"x_max":0,"o":"m 265 597 b 261 593 263 597 261 596 b 269 564 261 585 269 569 b 268 561 269 563 269 561 b 250 572 265 561 260 564 b 204 594 232 586 217 594 b 181 576 193 594 185 589 b 144 519 172 553 144 543 b 207 435 144 499 185 435 b 278 492 238 435 275 469 b 299 513 281 515 288 513 b 307 529 304 513 307 521 b 288 576 307 549 288 558 b 265 597 288 585 278 597 z m 78 -7 b 81 -11 78 -10 79 -11 b 89 -10 83 -11 86 -10 b 94 -17 92 -10 94 -11 b 76 -54 94 -32 83 -54 b 29 -171 63 -54 29 -144 b 49 -197 29 -187 36 -197 b 193 -57 65 -197 193 -74 b 204 -42 193 -47 197 -42 b 226 4 213 -42 226 -17 b 164 121 226 47 189 121 b 140 126 153 121 140 114 b 131 140 140 135 138 140 b 61 49 94 140 61 89 b 75 24 61 35 65 24 b 78 -7 89 24 78 3 z "},"<":{"ha":326,"x_min":0,"x_max":0,"o":"m 161 469 b 146 456 161 463 154 456 b 82 358 118 456 82 400 b 153 239 82 326 97 299 b 225 153 192 197 225 158 b 257 143 225 146 239 143 b 329 160 283 143 318 149 b 342 168 336 167 340 168 b 332 144 342 164 328 144 b 353 169 338 144 353 163 b 332 206 353 176 332 201 l 333 206 b 350 201 336 206 344 201 b 356 207 353 201 356 203 b 211 351 356 224 228 351 b 200 378 192 351 221 378 b 186 390 192 378 186 383 b 213 404 186 397 199 404 b 239 419 226 404 239 411 b 315 453 239 440 307 439 b 378 510 324 467 378 488 b 342 556 378 519 357 556 b 161 469 333 556 161 472 z "},"=":{"ha":481,"x_min":0,"x_max":0,"o":"m 372 403 l 396 403 b 513 460 454 403 513 406 b 485 488 513 475 501 488 b 461 485 476 488 469 485 b 433 493 450 485 439 488 b 299 504 425 500 372 504 l 264 504 b 113 469 169 504 113 503 b 282 401 113 410 189 401 b 372 403 311 401 342 403 z m 192 332 b 160 333 181 332 169 333 b 113 318 139 333 124 318 b 107 319 110 318 108 318 b 101 322 104 321 103 322 b 93 311 97 322 93 318 b 99 293 93 306 96 300 b 261 247 117 261 165 247 b 376 261 318 247 371 254 b 436 274 382 268 408 274 b 510 319 476 274 510 289 b 401 343 510 325 422 343 b 363 332 389 343 371 332 b 357 339 360 332 357 333 b 343 347 357 344 351 347 b 272 329 329 347 297 329 b 221 343 264 329 235 343 b 192 332 211 343 211 332 z "},">":{"ha":339,"x_min":0,"x_max":0,"o":"m 299 231 b 313 243 299 238 304 243 b 376 340 340 243 376 299 b 306 460 376 372 361 400 b 233 546 267 501 233 540 b 201 556 233 553 219 556 b 129 539 175 556 140 550 b 118 531 122 532 119 531 l 117 531 b 128 554 117 535 132 554 b 106 529 122 554 106 536 b 126 493 106 522 126 497 b 108 497 124 493 114 497 b 103 492 106 497 103 496 b 247 347 103 475 231 347 b 258 321 267 347 238 321 b 272 308 267 321 272 315 b 246 296 272 301 260 296 b 221 279 232 296 221 288 b 143 246 221 258 151 260 b 82 189 135 232 82 211 b 117 143 82 179 101 143 b 299 231 125 143 299 228 z "},"?":{"ha":472,"x_min":0,"x_max":0,"o":"m 297 268 b 407 421 297 293 335 346 b 454 494 433 449 454 481 b 506 551 454 525 506 528 b 563 604 506 571 563 588 b 571 625 563 613 564 621 b 614 733 590 638 614 701 b 599 807 614 746 603 807 b 585 831 590 807 585 818 b 467 894 585 863 525 894 l 444 894 b 411 901 424 894 411 897 b 413 907 411 904 413 906 b 404 913 413 911 410 913 b 364 896 393 913 375 907 b 351 886 357 889 353 886 l 351 888 b 358 906 351 890 358 900 b 350 911 358 910 356 911 b 142 749 275 911 142 789 b 131 729 142 738 136 729 b 89 601 119 729 89 636 b 125 554 89 576 108 554 b 150 606 143 554 149 579 b 263 793 154 661 214 763 b 293 819 282 806 293 815 b 289 825 293 822 289 824 b 303 832 289 826 292 828 b 339 838 313 836 326 838 b 425 810 368 838 401 828 l 456 786 l 410 717 b 319 599 335 603 331 599 b 274 542 301 599 278 569 b 226 419 267 504 231 463 b 196 271 221 364 196 342 b 206 215 196 242 199 215 b 214 217 208 215 211 217 b 222 208 217 217 219 215 b 235 203 224 204 228 203 b 279 218 251 203 279 213 b 265 233 279 221 265 222 b 297 268 265 269 297 238 z m 204 -104 b 238 -94 218 -104 231 -101 b 294 -28 268 -64 294 -99 b 208 58 294 42 269 58 b 142 36 189 58 142 44 b 174 -81 142 36 174 -69 b 172 -85 174 -83 174 -85 b 147 -68 167 -85 151 -68 b 146 -71 146 -68 146 -69 b 204 -104 146 -94 176 -104 z "},"@":{"ha":822,"x_min":0,"x_max":0,"o":"m 597 526 b 585 521 597 522 593 521 b 571 535 578 521 571 526 b 597 526 571 554 597 531 z m 493 449 b 378 332 493 425 400 332 b 369 358 371 332 369 344 b 393 463 369 388 378 433 b 532 551 414 503 493 551 b 558 540 543 551 558 544 b 493 449 558 532 493 464 z m 247 500 b 251 503 247 503 249 503 l 261 503 b 272 521 267 503 272 506 b 357 639 272 550 279 558 b 578 756 442 726 496 756 b 768 514 710 756 768 672 b 699 269 768 428 743 336 b 664 235 683 247 672 235 b 650 279 656 235 650 250 b 626 381 650 339 626 321 b 649 504 626 422 635 479 b 654 524 653 511 654 517 b 619 576 654 536 644 550 b 536 619 586 611 575 619 b 426 613 507 619 429 613 b 311 490 407 610 311 508 b 300 467 311 479 306 469 b 282 382 289 463 282 436 l 282 365 b 313 286 282 324 285 286 b 329 268 336 286 329 278 b 364 258 329 261 340 258 b 482 317 419 258 439 271 b 529 356 504 342 522 356 b 532 351 532 356 532 354 b 603 156 538 251 571 156 b 636 132 624 156 624 132 b 653 140 640 132 646 135 b 689 140 675 160 674 140 b 819 332 733 140 817 308 b 839 442 821 349 839 411 b 838 463 839 450 839 458 b 847 475 829 486 836 475 b 858 532 856 475 858 492 b 846 606 858 568 853 601 b 840 633 832 614 840 619 b 799 721 840 660 817 714 b 781 754 789 725 781 740 b 760 781 781 769 772 781 b 747 797 743 781 747 790 b 731 807 747 803 744 807 b 697 817 718 807 701 813 b 604 836 686 828 657 833 b 539 853 574 838 556 853 b 499 833 525 853 515 833 b 358 781 479 833 376 781 b 186 592 338 781 194 624 b 156 540 176 550 156 586 b 128 492 156 492 131 535 b 113 408 126 460 128 424 b 103 325 106 401 103 365 b 117 215 103 275 108 221 b 129 185 124 211 129 196 b 251 63 129 163 225 65 b 319 58 278 60 301 58 b 382 82 361 58 382 67 b 274 186 382 124 274 186 b 272 185 272 186 272 186 b 222 238 272 185 235 238 l 221 238 b 218 250 208 235 207 238 b 229 319 225 258 229 288 b 228 356 229 332 228 343 b 251 482 228 415 251 439 b 247 500 251 489 247 496 z "},"A":{"ha":674,"x_min":0,"x_max":0,"o":"m 419 443 b 344 426 415 443 367 426 b 335 431 339 426 335 428 b 329 433 335 432 332 433 b 272 421 315 433 278 421 b 256 431 261 421 256 425 b 292 490 256 443 292 478 b 361 588 292 504 361 572 b 372 601 361 596 367 601 b 401 638 378 601 392 618 b 507 760 419 672 493 760 b 511 726 510 760 511 746 b 507 665 511 704 508 669 b 465 489 507 665 476 496 b 464 454 454 482 464 467 b 439 440 464 444 454 440 b 419 443 433 440 426 443 z m 90 361 b 43 315 90 339 43 340 b 58 306 43 303 49 300 b 64 283 76 317 64 294 b 114 247 64 264 114 264 b 110 233 114 243 113 239 b 4 -1 92 199 4 6 b 32 -4 4 -6 17 -7 b 82 72 54 -1 65 15 b 113 150 93 113 107 147 b 122 181 118 153 122 167 b 136 206 122 194 129 206 b 140 225 151 206 140 217 b 256 256 140 243 181 254 b 399 269 318 257 364 269 b 414 213 414 269 414 257 b 401 153 414 179 408 153 b 393 132 396 153 393 144 b 425 19 393 110 419 19 b 476 4 453 19 460 18 b 492 -1 481 0 486 -1 b 585 131 525 -1 585 81 b 603 238 585 167 599 188 b 635 292 607 281 613 292 b 724 333 664 292 697 333 b 763 365 738 333 763 336 b 661 433 763 385 681 433 b 658 432 660 433 660 432 b 654 453 656 432 654 439 b 700 785 654 494 700 739 b 688 842 700 811 688 824 b 696 869 688 853 696 858 b 539 944 696 900 603 944 b 493 897 499 944 493 936 b 478 874 493 874 488 874 b 414 782 460 874 414 810 b 403 761 414 769 408 761 b 293 575 392 761 383 747 b 232 472 268 528 242 482 b 215 440 224 463 215 449 b 125 390 215 415 169 390 b 86 378 97 390 86 388 b 90 361 86 374 90 365 z "},"B":{"ha":1229,"x_min":0,"x_max":0,"o":"m 479 108 b 411 124 425 108 411 113 b 450 281 411 138 431 206 l 486 415 l 586 419 b 674 421 621 421 653 421 b 938 397 710 421 901 406 b 1169 281 1006 382 1169 299 b 1103 210 1169 253 1128 210 b 1085 203 1090 210 1075 219 b 1074 196 1092 192 1088 190 b 1049 192 1061 200 1051 199 b 872 139 1043 172 872 157 b 479 108 872 125 632 108 z m 1235 153 b 1260 211 1249 153 1260 186 b 1256 232 1260 219 1258 228 b 1283 232 1244 249 1276 232 b 1288 239 1286 232 1288 235 b 1251 331 1288 239 1269 331 b 1236 338 1244 331 1236 325 b 1213 361 1236 346 1226 356 b 1108 417 1183 372 1147 417 b 1075 431 1093 417 1078 422 b 971 457 1071 442 971 451 b 872 483 971 471 872 475 b 783 492 872 485 810 492 b 751 486 764 492 751 490 b 740 474 751 479 754 474 b 731 490 724 474 731 482 b 717 496 731 494 725 496 b 676 493 704 496 686 493 b 643 504 657 493 643 497 b 693 536 643 515 693 524 b 767 572 693 550 767 556 b 776 585 767 582 754 593 b 804 594 789 581 800 585 b 885 642 810 608 885 628 b 889 650 885 649 875 658 b 906 646 893 647 900 646 b 944 675 924 646 944 658 b 961 690 944 686 951 690 b 1090 747 979 690 1075 732 b 1179 803 1100 757 1144 785 b 1229 907 1208 818 1229 853 b 1194 949 1229 925 1219 938 b 1157 982 1174 958 1157 974 b 1082 1018 1157 1003 1121 1018 b 964 974 1031 1018 964 985 b 911 967 964 971 942 967 b 885 968 903 967 893 968 b 800 954 847 968 810 963 b 792 956 786 943 785 943 b 779 972 797 965 793 972 b 753 949 749 972 779 949 b 740 961 738 949 740 954 b 736 963 740 963 739 963 b 650 926 719 963 660 939 b 640 931 644 919 640 919 b 621 944 640 940 636 944 b 142 783 485 944 142 840 b 178 764 142 769 161 764 b 228 781 194 764 214 769 b 389 840 260 808 344 840 b 410 844 406 840 410 842 b 400 858 410 849 400 854 b 424 863 400 861 406 863 b 874 890 728 869 608 890 b 979 875 943 890 979 885 b 944 854 979 869 968 863 b 872 800 904 840 872 815 b 875 793 872 797 874 794 b 867 792 885 782 874 792 b 713 735 842 792 728 735 b 626 681 690 733 654 681 b 574 653 599 681 592 653 b 549 693 561 653 549 668 b 519 779 549 746 519 724 l 519 792 l 522 843 l 479 833 b 394 779 436 824 394 797 b 389 758 394 769 403 763 b 372 721 381 756 374 739 b 342 607 369 674 342 650 b 347 594 342 600 344 594 l 350 594 b 354 583 358 599 358 596 b 338 563 350 571 343 563 b 307 443 318 563 328 458 b 240 168 286 428 240 207 b 228 153 240 158 235 153 b 225 121 214 153 225 129 b 219 114 225 117 224 114 b 128 150 201 114 158 150 b 101 149 114 150 106 149 b 97 154 97 149 97 149 l 97 164 b 78 175 97 171 89 175 b 6 101 42 175 6 132 b 19 86 6 92 11 86 b 32 61 26 86 32 75 b 65 -7 32 22 46 -7 b 88 -18 75 -7 85 -11 b 199 -71 94 -37 171 -71 b 215 -69 210 -71 214 -50 b 271 -86 217 -79 238 -86 b 318 -75 299 -86 318 -81 b 336 -62 318 -67 317 -61 b 354 -79 357 -64 354 -71 b 378 -86 354 -83 363 -86 b 475 -58 401 -86 475 -76 b 485 -56 475 -56 479 -56 b 517 -57 494 -56 508 -57 b 660 -36 550 -57 629 -36 b 686 -53 679 -36 674 -53 b 722 -39 696 -53 711 -39 b 776 -50 738 -39 760 -50 b 869 -31 808 -50 829 -31 l 878 -31 b 926 -18 900 -31 922 -25 b 958 -24 939 1 958 -43 b 988 -7 958 -15 972 -7 b 1101 46 1021 -7 1075 46 b 1110 60 1111 46 1114 53 b 1131 69 1100 76 1121 69 b 1235 153 1189 69 1190 153 z "},"C":{"ha":660,"x_min":0,"x_max":0,"o":"m 465 211 b 357 174 449 211 375 174 b 347 176 351 174 353 176 b 292 158 333 176 304 158 b 250 208 260 158 250 171 b 292 469 250 354 292 469 b 335 563 303 469 335 540 b 344 569 335 569 332 576 b 358 581 351 565 358 569 b 368 604 358 592 363 601 b 419 672 374 607 397 638 b 589 826 454 725 567 826 b 671 724 607 826 664 756 b 693 622 672 718 693 644 b 690 615 693 618 692 615 b 682 578 682 615 682 593 b 669 489 682 551 669 514 b 683 461 669 476 683 467 b 671 457 683 458 681 457 b 669 443 643 457 651 443 b 729 483 693 443 729 464 b 753 563 729 522 753 514 l 753 574 b 760 633 753 590 760 619 b 756 642 760 639 758 642 b 742 656 747 642 742 647 b 757 661 742 668 749 661 b 764 699 763 661 764 676 b 739 850 764 749 753 832 b 739 861 726 865 726 868 b 747 872 750 854 753 858 b 725 885 743 885 733 890 b 722 897 711 876 722 890 b 646 972 722 922 674 972 b 575 989 638 972 592 989 b 569 986 572 989 569 988 b 514 975 569 979 546 975 l 501 975 b 440 961 468 975 443 969 b 417 946 438 953 426 946 b 353 875 392 946 368 892 b 293 794 333 854 321 794 b 279 788 286 794 279 801 b 222 707 279 774 267 756 b 200 669 210 693 200 676 b 175 643 200 658 175 653 b 194 617 175 633 194 621 b 189 615 194 615 193 615 b 174 592 179 615 174 606 b 119 472 174 558 119 508 b 108 443 119 457 114 443 b 97 408 103 443 97 426 b 86 365 97 390 93 369 b 61 254 69 353 61 307 b 111 43 61 168 81 63 b 113 31 128 32 113 35 b 160 -6 113 25 142 -6 b 174 15 167 -6 174 0 b 188 24 174 32 176 35 b 222 17 196 15 210 13 b 232 -10 249 26 232 7 b 257 -31 232 -22 243 -31 b 328 0 281 -31 304 -3 b 438 69 378 6 438 42 b 474 118 438 76 454 99 b 539 222 508 153 539 203 b 531 231 539 228 536 231 b 465 211 514 231 476 211 z "},"D":{"ha":1140,"x_min":0,"x_max":0,"o":"m 1129 749 b 1099 697 1129 733 1101 711 b 1031 592 1094 678 1038 592 l 1031 593 b 1029 594 1031 594 1031 594 b 990 554 1022 594 990 558 b 900 488 990 542 951 513 b 858 454 876 476 858 461 b 854 447 858 449 857 447 b 838 453 850 447 842 453 b 832 444 835 453 832 450 b 775 415 832 433 793 415 b 764 418 769 415 767 418 b 756 410 763 418 761 417 b 647 364 739 385 688 364 b 582 349 625 364 596 357 b 557 338 572 342 563 338 b 546 360 549 338 546 344 b 558 439 546 376 550 401 b 617 714 578 521 596 603 b 651 854 629 778 644 769 l 657 926 l 708 933 b 800 940 747 939 775 940 b 1018 872 861 940 989 899 b 1054 853 1031 861 1046 853 b 1069 838 1063 853 1069 847 b 1129 749 1069 822 1129 765 z m 178 447 b 176 449 176 447 176 447 b 192 489 176 454 192 478 b 183 496 192 493 189 496 b 181 500 181 496 181 497 b 224 588 181 518 224 575 b 235 601 224 596 229 601 b 304 700 247 601 290 700 l 306 700 b 406 788 321 700 390 788 b 435 813 419 788 424 813 b 457 786 444 813 457 794 b 435 701 457 763 435 731 b 393 549 435 683 404 549 b 382 518 386 549 382 535 b 328 324 382 460 350 343 b 301 263 311 308 301 286 b 339 172 301 238 319 172 b 350 176 343 172 347 176 b 353 171 353 176 353 174 b 347 140 353 164 347 149 b 397 103 347 117 369 103 b 469 132 421 103 447 113 b 526 167 489 150 515 167 b 654 200 606 169 654 182 b 650 215 654 206 650 213 b 653 217 650 217 651 217 b 664 214 654 217 658 215 b 676 213 668 213 674 213 b 715 226 692 213 697 226 b 746 221 725 226 739 221 b 750 224 749 221 750 221 b 746 232 750 225 749 228 b 742 242 743 236 742 240 b 744 243 742 243 742 243 b 757 240 747 243 751 242 b 768 239 761 239 765 239 b 779 246 775 239 779 242 b 806 258 779 253 792 258 b 832 271 819 258 832 264 b 858 285 832 278 844 285 b 885 299 872 285 885 290 b 894 307 885 306 889 307 b 918 304 901 307 911 304 b 1010 350 946 304 989 350 b 1103 417 1029 350 1083 417 b 1201 518 1119 417 1201 501 b 1247 606 1201 533 1247 582 b 1246 621 1247 611 1246 617 b 1253 628 1246 625 1247 628 b 1263 647 1260 628 1263 635 b 1236 781 1263 669 1236 743 b 1239 807 1236 793 1239 796 b 1175 919 1239 846 1200 919 b 1149 931 1161 919 1149 924 b 1069 986 1149 946 1069 972 b 1049 992 1069 992 1060 992 l 1025 992 b 971 1004 1006 992 983 996 b 750 1033 951 1017 810 1033 b 607 1010 714 1033 663 1010 b 572 992 592 1010 576 1004 b 557 981 568 982 564 981 b 538 982 551 981 544 982 b 456 932 510 982 456 949 b 457 929 456 931 457 931 b 458 924 458 928 458 925 b 454 921 458 921 457 921 b 443 924 451 921 449 922 b 433 926 439 925 436 926 b 397 900 415 926 415 900 l 393 900 b 381 883 388 900 382 899 b 378 869 381 874 379 869 b 365 885 375 869 371 885 b 301 832 354 885 308 832 b 236 764 286 832 236 781 b 229 754 236 756 233 754 b 214 757 225 754 218 757 b 210 751 211 757 210 756 b 178 707 210 746 194 725 b 128 604 150 676 128 628 l 128 597 l 128 594 b 126 593 128 593 128 593 b 108 599 122 593 114 599 b 103 593 106 599 103 597 b 85 482 99 565 85 511 b 131 406 85 435 101 406 b 196 446 153 406 196 433 b 192 451 196 450 194 451 b 178 447 188 451 182 447 z m 994 1004 b 997 1006 996 1004 997 1004 b 969 1026 997 1011 979 1026 b 964 1019 965 1026 964 1025 b 994 1004 964 1017 983 1004 z "},"E":{"ha":1106,"x_min":0,"x_max":0,"o":"m 290 410 b 315 190 306 410 315 215 b 256 149 315 157 301 150 b 217 138 233 149 217 144 b 192 125 217 132 206 125 b 110 81 179 125 110 81 l 110 82 b 32 -8 93 82 32 3 b 88 -40 32 -28 72 -40 b 126 -1 110 -40 126 -26 b 125 13 126 3 126 8 b 146 6 124 19 132 15 b 160 1 164 -8 160 -6 b 206 38 160 8 178 25 b 529 67 243 56 347 67 b 728 57 638 67 724 63 b 735 53 729 54 732 53 b 772 71 746 53 761 71 b 782 63 776 71 779 68 b 886 46 786 51 819 46 b 983 35 940 46 983 42 b 997 29 983 32 989 29 b 1121 65 1029 29 1106 50 b 1138 129 1131 75 1138 108 b 1132 149 1138 140 1136 149 b 1129 147 1131 149 1131 147 b 1089 176 1124 147 1106 160 b 1082 192 1068 197 1065 204 b 1093 193 1106 175 1108 174 b 1053 208 1085 204 1068 208 b 1028 197 1040 208 1028 206 b 1025 179 1028 190 1040 179 b 986 199 1008 179 1004 199 b 965 193 981 199 969 193 b 944 213 956 193 968 213 b 932 211 940 213 936 211 b 874 225 906 211 894 225 b 839 213 863 225 851 221 b 836 228 813 196 836 222 b 833 231 836 229 836 231 b 751 213 826 231 768 213 b 667 225 733 213 711 225 b 532 210 594 225 613 210 b 451 229 478 210 451 213 b 471 282 451 247 463 271 b 499 397 489 304 492 364 b 561 469 508 447 489 469 b 772 511 581 469 772 501 b 794 522 772 518 782 522 b 811 526 806 522 811 524 b 675 567 811 539 717 567 b 649 558 657 567 658 558 b 593 572 636 558 608 572 b 550 568 581 572 560 568 b 538 582 540 568 538 571 b 576 796 538 617 553 782 b 686 808 589 803 646 808 b 726 801 714 808 726 807 b 832 792 726 796 779 792 b 931 803 886 792 931 796 b 940 808 931 807 935 808 b 972 806 949 808 963 806 b 983 813 979 806 983 807 b 1000 824 983 826 990 824 b 1049 872 1025 824 1049 850 b 1036 890 1049 882 1044 890 b 1019 904 1022 890 1019 890 b 754 925 1019 922 867 925 b 640 924 692 925 643 924 b 578 925 621 924 599 925 b 481 904 528 925 481 922 b 476 899 481 900 479 899 b 446 914 469 899 454 914 b 442 907 443 914 442 913 b 406 897 442 900 428 897 b 371 899 394 897 382 899 b 292 883 343 899 308 892 b 256 876 272 874 256 869 b 221 886 256 882 240 886 b 126 853 183 886 126 875 b 174 794 126 836 160 794 b 188 799 178 794 182 796 b 328 815 206 808 267 815 l 346 815 b 381 801 363 815 381 814 b 369 740 381 789 369 756 b 361 707 369 724 381 719 b 350 694 353 701 350 699 b 369 671 350 685 369 679 b 363 663 369 668 367 665 b 349 590 354 657 349 625 l 349 528 l 286 510 b 169 419 221 490 169 450 b 214 393 169 399 189 393 b 290 410 238 393 264 410 z "},"F":{"ha":1153,"x_min":0,"x_max":0,"o":"m 526 813 b 506 721 526 793 519 763 b 467 540 485 657 479 600 b 435 494 460 508 471 494 b 331 463 425 494 335 463 b 328 465 331 464 329 465 b 311 457 325 465 318 463 b 294 419 301 450 294 432 b 308 392 294 403 301 392 b 324 404 313 392 318 396 b 339 411 326 410 332 411 b 368 408 347 411 358 408 b 408 422 388 408 390 422 b 447 388 432 422 447 407 b 432 354 447 376 442 364 b 424 342 426 349 424 344 b 433 339 424 339 426 339 b 444 335 440 339 444 339 b 435 318 444 332 442 326 b 404 133 414 293 415 168 b 400 115 401 126 400 119 b 414 104 400 107 404 104 b 440 83 425 104 436 94 b 442 75 442 79 442 76 b 438 71 442 72 440 71 l 433 71 b 422 56 428 71 422 69 b 482 10 422 38 456 10 b 535 50 496 10 508 21 b 579 142 571 89 579 106 l 579 168 b 589 196 579 182 581 196 b 607 290 596 196 603 238 b 651 468 613 360 642 468 b 664 449 657 468 653 449 b 692 457 669 449 679 451 b 921 471 711 465 813 471 b 1124 500 1107 471 1113 474 b 1129 531 1128 510 1129 522 b 1128 540 1129 535 1129 538 b 1126 544 1126 542 1126 543 b 1128 546 1126 546 1126 546 b 1140 538 1131 546 1135 543 b 1157 531 1147 532 1153 531 b 1169 558 1167 531 1169 542 b 1164 565 1169 564 1167 565 l 1158 565 b 1151 576 1154 565 1151 567 b 1078 601 1151 593 1118 601 b 819 554 982 601 926 560 b 736 535 790 553 753 543 b 715 526 725 529 718 526 b 713 529 714 526 713 528 b 717 542 713 532 717 538 b 710 546 717 544 715 546 b 675 522 694 546 685 522 b 661 561 667 522 661 539 b 672 625 661 581 664 603 b 696 818 683 658 696 763 b 689 861 696 843 689 850 b 789 875 689 874 751 875 l 804 875 b 1215 858 913 875 1082 858 l 1272 858 b 1333 886 1306 858 1333 861 b 1358 946 1333 917 1358 918 b 1203 1021 1358 1010 1263 1021 b 1138 1004 1182 1021 1138 1015 b 924 971 1138 992 996 982 b 879 951 901 967 882 960 b 869 944 878 947 874 944 b 826 960 857 944 835 960 b 803 940 819 960 808 940 b 800 950 801 940 800 943 b 796 964 800 960 797 964 b 776 938 790 964 781 938 b 774 949 775 938 774 940 b 753 958 774 956 765 958 b 650 943 725 958 675 946 b 138 803 354 914 218 876 b 108 753 118 785 108 767 b 142 729 108 739 119 729 b 175 756 182 729 157 756 b 221 794 190 756 221 783 l 221 797 b 238 804 221 801 222 801 b 361 831 306 813 299 831 b 429 851 400 831 404 851 l 454 851 b 526 813 489 851 526 849 z "},"G":{"ha":907,"x_min":0,"x_max":0,"o":"m 574 982 b 536 956 539 982 567 967 b 433 886 514 947 458 886 b 415 865 424 886 415 876 b 396 846 415 854 407 846 b 329 781 371 846 353 781 b 311 756 319 781 311 769 b 260 699 311 724 260 722 b 207 618 260 676 207 643 b 194 599 207 607 201 599 b 181 579 188 599 181 590 b 168 560 181 568 175 560 b 106 425 138 560 131 458 b 61 263 82 393 61 311 b 69 215 61 253 69 228 b 67 208 69 211 69 208 b 57 149 61 208 57 182 b 88 42 57 90 64 61 b 115 1 103 29 115 10 b 124 -8 115 -6 119 -8 b 132 -7 126 -8 129 -7 b 142 -24 138 -7 142 -10 b 181 -49 142 -42 151 -49 b 214 -36 201 -49 214 -43 b 213 -33 214 -35 213 -35 b 211 -29 211 -32 211 -29 b 225 -43 213 -29 218 -35 b 257 -58 233 -54 246 -58 b 279 -43 269 -58 279 -53 b 275 -28 279 -37 275 -31 l 275 -26 b 285 -35 276 -26 279 -29 b 315 -51 296 -46 308 -51 b 321 -47 318 -51 321 -50 b 317 -31 321 -43 317 -35 b 324 -26 317 -28 318 -26 b 363 -58 344 -26 331 -58 b 418 -35 382 -58 410 -49 b 431 -24 424 -25 426 -24 b 450 -26 435 -24 440 -26 b 503 0 467 -26 485 -17 b 539 26 518 14 535 26 b 544 6 543 26 544 18 b 518 -132 544 -68 518 -54 l 518 -153 b 507 -208 518 -185 514 -208 b 493 -222 500 -208 493 -214 b 503 -231 493 -229 497 -231 b 528 -226 511 -231 522 -226 b 532 -228 531 -226 532 -226 b 501 -269 532 -232 501 -262 b 546 -299 501 -279 546 -286 b 574 -317 546 -310 564 -317 b 579 -314 576 -317 579 -315 l 579 -312 b 578 -306 578 -310 578 -308 b 590 -292 578 -297 585 -292 b 597 -301 594 -292 597 -294 b 603 -310 597 -307 600 -310 b 657 -236 614 -310 640 -276 b 819 282 667 -212 819 197 b 876 333 819 321 822 325 b 924 336 893 336 910 336 b 956 331 938 336 947 331 b 968 339 961 331 965 333 b 978 346 971 344 975 346 b 997 340 983 346 990 340 b 1001 344 1000 340 1001 342 b 974 386 1001 353 990 371 b 747 413 956 403 874 413 b 590 404 671 413 606 410 b 571 399 582 401 576 399 b 533 413 554 399 551 413 b 497 400 522 413 510 408 b 488 396 493 397 490 396 b 465 407 479 396 475 407 b 396 353 447 407 396 367 l 396 344 b 388 331 396 339 394 335 b 381 328 383 328 382 328 b 379 329 379 328 379 328 b 386 349 379 333 386 343 b 383 351 386 350 386 351 b 376 350 382 351 379 351 b 357 322 364 346 357 335 b 458 232 357 281 417 232 b 572 250 501 232 557 240 b 601 258 579 254 590 258 b 636 244 614 258 636 250 b 621 229 636 242 632 238 b 563 199 588 204 622 201 b 500 182 538 197 510 190 b 479 174 492 175 485 174 b 463 175 474 174 468 175 b 440 163 456 175 449 172 b 386 143 426 146 390 156 b 294 107 382 129 310 107 b 229 215 256 107 229 164 b 240 246 229 231 239 235 b 354 526 246 322 297 451 b 389 585 374 551 389 578 b 403 599 389 593 396 599 b 417 615 410 599 417 606 b 457 664 417 624 435 646 b 540 739 479 682 517 715 b 600 781 564 763 590 781 b 704 833 624 781 679 833 b 732 850 715 833 728 842 b 738 860 735 856 736 860 b 739 850 739 860 739 856 b 760 833 740 842 749 833 b 783 800 781 833 783 818 l 783 778 b 735 558 783 700 765 613 b 718 503 724 538 718 518 b 739 469 718 483 725 469 b 832 585 771 469 832 567 b 881 697 832 600 881 674 b 878 714 881 704 878 710 b 885 724 878 718 879 719 b 890 747 889 726 890 736 l 890 764 b 896 781 890 774 892 781 b 906 829 901 781 906 801 b 778 989 906 907 854 989 b 733 1000 751 989 733 994 b 708 1013 733 1008 732 1013 b 676 1000 690 1013 676 1007 b 663 993 676 994 669 993 b 633 994 653 993 642 994 b 624 989 628 994 624 993 b 597 982 624 983 611 982 z "},"H":{"ha":1061,"x_min":0,"x_max":0,"o":"m 674 -32 b 719 -67 674 -50 719 -50 b 732 -76 719 -74 725 -76 b 863 121 801 -76 861 56 b 913 224 863 154 907 190 b 942 307 918 263 942 267 b 975 426 942 332 975 403 b 974 429 975 428 975 429 b 988 450 969 429 976 439 b 1019 465 997 460 1010 465 b 1028 464 1022 465 1025 465 b 1051 482 1056 453 1024 482 b 1072 461 1063 482 1072 472 b 1078 449 1072 453 1072 449 b 1149 475 1088 449 1136 475 b 1156 472 1153 475 1153 472 b 1172 536 1164 472 1172 507 b 1117 607 1172 571 1142 607 b 1097 608 1110 607 1097 596 b 1024 631 1097 625 1024 619 b 1072 800 1024 693 1072 725 b 1021 879 1072 844 1057 879 b 911 674 979 879 914 697 b 761 597 906 624 878 610 b 610 579 699 590 632 583 b 590 586 579 574 575 575 b 572 592 606 597 601 599 b 506 582 547 586 526 582 b 474 592 494 582 474 579 b 519 725 474 613 519 707 b 543 804 519 743 536 764 b 575 919 550 842 575 888 b 563 939 575 928 571 933 b 560 953 544 951 560 947 b 513 989 560 961 525 989 b 472 868 500 989 472 882 b 421 731 472 850 421 746 b 399 668 421 724 411 696 b 339 567 381 625 379 569 b 251 543 331 567 290 554 b 108 488 206 529 108 519 b 97 472 108 476 103 472 b 75 476 90 472 82 476 b 50 449 60 476 50 465 b 138 389 50 401 68 389 b 240 392 160 389 210 392 b 275 381 265 392 275 390 b 200 163 275 315 200 231 b 251 107 200 135 229 107 b 261 117 257 107 261 111 b 317 186 261 144 317 157 b 329 208 317 199 322 208 b 343 238 336 208 343 222 b 394 379 343 275 394 343 b 408 401 394 396 397 401 b 447 396 418 401 435 396 b 481 406 461 396 474 400 b 576 421 490 414 535 421 b 649 429 617 421 649 425 b 669 435 649 435 658 435 b 700 433 679 435 689 433 b 771 447 713 433 749 447 b 790 433 782 447 790 443 b 760 340 790 414 760 363 b 722 247 760 301 728 286 b 678 108 714 186 690 178 b 663 60 674 83 663 76 b 681 19 663 43 672 19 b 686 21 682 19 685 21 b 690 14 689 21 690 18 b 674 -32 690 4 674 -17 z m 288 118 b 282 138 288 126 285 138 b 288 118 269 138 288 81 z "},"I":{"ha":303,"x_min":0,"x_max":0,"o":"m 164 488 b 165 485 164 486 164 485 b 181 490 168 485 176 490 b 186 482 183 490 186 488 b 175 469 186 474 182 469 b 147 411 169 469 156 442 b 108 329 139 381 121 342 b 88 272 96 317 88 292 b 81 235 88 253 88 235 b 35 153 68 235 44 190 b 28 63 32 139 28 100 b 29 33 28 53 29 43 b 4 -39 29 -15 24 -29 b -15 -61 -10 -46 -15 -50 b 39 -131 -15 -97 10 -131 b 108 -67 78 -131 108 -103 b 121 -39 108 -51 114 -39 b 133 -12 128 -39 133 -26 b 154 13 133 1 143 13 b 269 288 182 13 261 224 b 321 443 275 331 313 403 b 410 746 342 547 365 657 b 421 801 417 758 421 783 b 388 833 421 828 415 833 b 364 842 368 833 364 836 b 367 857 364 846 367 851 b 365 858 367 858 367 858 b 274 729 328 858 301 729 b 264 697 268 729 264 714 b 238 625 264 657 238 661 b 225 599 238 611 232 599 b 213 574 218 599 213 588 b 164 488 213 533 164 525 z "},"J":{"ha":764,"x_min":0,"x_max":0,"o":"m 785 844 b 808 863 785 857 792 860 b 832 854 835 868 832 864 b 839 850 832 851 835 850 b 942 940 883 850 942 890 b 925 967 942 956 936 967 b 889 996 899 967 918 996 b 828 1033 865 996 849 1033 b 651 1000 825 1033 651 1004 b 639 997 651 997 647 997 b 574 1008 603 997 593 1008 b 543 1001 565 1008 557 1007 b 379 969 506 988 456 976 b 232 936 288 961 354 949 b 201 921 215 935 201 928 b 176 917 201 908 186 917 b 128 861 154 917 128 886 b 161 835 128 842 138 835 b 204 839 172 835 185 836 b 511 853 268 847 417 853 l 536 853 b 617 825 583 853 617 851 b 628 774 617 810 628 790 b 614 742 628 764 604 742 b 625 694 622 742 625 719 b 613 626 625 668 621 639 b 632 613 596 599 632 633 b 615 599 632 604 625 599 b 618 588 604 599 606 596 b 625 551 631 581 632 567 b 592 393 618 536 606 399 b 579 350 585 390 579 371 b 569 313 579 329 575 313 b 528 225 557 313 528 250 b 507 208 528 215 518 208 b 494 200 496 208 494 204 b 496 190 494 197 496 193 b 483 182 496 186 493 182 b 460 149 467 182 460 171 b 426 135 460 138 450 136 b 375 110 408 133 385 122 b 358 99 365 97 358 92 b 346 92 358 106 353 103 b 319 92 335 75 331 75 b 306 96 313 103 306 104 b 294 86 306 89 301 86 b 221 132 278 86 247 104 b 181 160 201 151 190 160 b 150 115 161 160 150 132 b 135 99 150 93 144 99 b 126 76 129 99 126 89 b 243 -72 126 -1 193 -72 b 322 -97 279 -72 297 -97 b 360 -86 332 -97 343 -93 b 507 -14 413 -61 469 -54 b 542 6 524 4 533 6 b 625 79 550 6 586 38 b 768 344 700 160 750 251 b 808 682 788 442 808 561 b 785 844 808 739 785 806 z "},"K":{"ha":1028,"x_min":0,"x_max":0,"o":"m 149 482 b 111 401 149 457 115 426 b 103 371 108 385 104 371 b 94 324 101 371 97 349 b 64 222 88 271 64 269 b 51 192 64 206 58 192 b 46 181 46 192 46 188 b 47 151 46 172 47 160 b 40 139 47 144 46 139 b 32 97 35 139 32 121 b 49 7 32 78 33 7 b 161 114 68 7 161 101 b 174 140 161 121 163 129 b 189 186 186 153 189 169 b 210 229 189 199 197 218 b 263 324 221 240 251 324 b 294 382 275 324 283 382 b 328 332 310 382 328 344 b 460 207 328 303 418 217 b 490 185 471 204 485 194 b 599 125 501 165 575 125 b 669 72 621 125 640 72 b 790 14 694 72 764 14 b 875 -4 818 14 835 -4 b 910 -3 886 -4 900 -3 b 936 -14 928 -3 936 -6 b 993 -43 936 -26 969 -43 b 1060 31 1017 -43 1060 6 b 1018 101 1060 54 1033 101 b 985 119 1007 101 996 106 b 764 224 968 143 794 224 b 754 221 760 224 757 221 b 751 228 753 221 751 222 b 653 271 751 244 664 263 b 567 318 638 282 567 292 b 558 332 567 329 563 332 b 550 331 556 332 553 331 b 539 347 544 331 540 333 b 535 360 538 356 536 360 b 531 353 533 360 532 357 b 522 344 528 347 526 344 b 501 360 518 344 511 350 b 408 460 474 390 408 404 b 478 567 408 506 439 553 b 494 583 488 569 494 576 b 492 590 494 586 493 588 b 488 599 489 594 488 597 l 489 599 b 501 596 492 599 497 596 b 553 622 517 596 553 622 b 600 650 557 622 600 633 b 599 657 600 653 600 654 b 596 664 596 661 596 663 b 597 665 596 665 596 665 b 608 663 600 665 604 663 b 672 693 628 663 672 693 b 682 704 672 703 676 704 l 689 704 b 751 736 711 704 751 724 b 788 754 751 747 772 739 b 831 781 807 772 831 756 b 838 794 831 792 833 794 b 857 790 843 794 850 790 b 936 828 883 790 936 813 b 978 840 936 835 956 840 b 1010 850 1008 840 1010 842 l 1010 853 b 1038 894 1010 865 1038 885 b 956 926 1038 915 975 926 b 910 911 935 926 918 921 b 881 893 901 900 889 893 b 693 788 871 893 700 788 b 563 708 688 788 568 708 b 457 628 554 708 469 628 b 357 572 444 628 375 572 b 354 574 356 572 354 572 b 375 614 354 590 375 596 l 375 631 b 382 644 375 638 376 643 b 403 740 389 647 399 689 b 429 938 413 847 429 847 b 394 992 429 971 426 992 b 318 946 368 992 318 972 b 290 853 318 919 299 853 b 239 736 279 853 239 760 b 224 696 239 731 233 714 b 204 624 214 678 206 646 b 169 542 201 572 169 588 b 154 510 169 525 163 510 b 146 501 147 510 146 506 b 149 482 146 496 149 488 z "},"L":{"ha":704,"x_min":0,"x_max":0,"o":"m 99 224 b 96 221 99 221 97 221 b 67 243 89 221 71 243 l 65 243 b 99 194 65 242 99 204 b 96 192 99 193 97 192 b 111 165 86 192 111 172 b 61 129 111 147 72 129 b 11 81 38 129 11 104 b 44 31 11 47 21 31 b 128 51 65 31 110 51 b 160 56 140 51 144 43 b 454 93 193 82 260 90 b 701 118 613 94 663 100 b 751 175 735 133 751 154 b 464 264 751 256 578 264 b 244 235 390 264 278 235 b 225 253 228 235 225 240 b 279 504 225 333 279 440 b 278 510 279 507 279 510 b 304 563 278 510 301 543 b 354 693 311 614 354 646 b 381 774 354 733 381 726 b 392 819 381 794 386 815 b 419 938 407 828 407 925 b 425 950 422 940 425 946 b 375 997 425 971 388 997 b 328 913 349 997 328 939 b 315 893 328 901 322 893 b 306 881 304 893 306 888 b 253 731 306 856 257 750 b 213 629 247 706 213 661 b 210 601 213 619 221 601 b 189 565 204 601 194 585 b 122 393 182 536 122 428 b 117 371 122 383 129 378 b 110 358 111 368 110 363 b 111 346 110 354 111 350 b 97 338 111 340 108 338 b 78 311 68 338 97 311 b 64 285 69 311 64 299 b 75 258 64 271 68 258 b 99 224 83 258 99 238 z "},"M":{"ha":825,"x_min":0,"x_max":0,"o":"m 18 -43 b 53 31 18 -29 53 11 b 86 97 53 50 86 82 b 83 106 86 101 83 101 b 111 165 83 121 111 147 b 107 185 111 171 107 181 b 110 188 107 188 108 188 b 122 186 113 188 118 186 b 132 201 128 186 132 188 b 156 258 132 214 143 242 b 204 376 165 272 204 376 b 201 379 203 376 201 378 b 233 428 201 388 233 419 b 231 431 233 429 233 431 b 233 444 225 431 225 436 b 257 492 249 460 231 492 b 281 447 271 492 281 472 b 271 353 281 417 271 382 b 286 285 271 315 286 306 b 285 269 286 279 285 274 b 303 258 285 263 288 258 b 331 238 318 258 331 249 b 317 218 331 226 324 218 b 307 211 310 218 307 215 b 381 161 307 194 347 161 b 418 183 401 161 418 171 b 421 201 418 193 406 201 b 556 342 436 201 556 325 b 606 410 556 351 568 368 b 615 426 614 418 615 424 b 613 435 615 431 613 432 b 628 454 613 438 615 443 b 686 515 643 467 668 493 b 711 543 700 533 708 543 b 713 539 713 543 713 542 b 700 496 713 524 704 500 b 614 119 683 482 614 192 b 624 99 614 104 617 99 b 624 83 636 99 636 96 b 608 -29 614 74 608 29 b 596 -119 608 -86 603 -119 b 582 -143 588 -119 582 -121 b 633 -271 582 -182 618 -271 b 714 -119 663 -271 714 -174 b 728 -86 714 -101 721 -86 b 740 -53 735 -86 740 -71 b 753 4 740 -35 746 -8 b 782 126 761 21 769 115 b 838 364 789 132 829 308 l 872 515 b 921 821 883 515 921 821 b 838 860 921 840 874 860 b 797 832 799 860 797 847 l 797 824 b 774 794 797 811 794 800 b 747 761 750 789 747 779 b 575 479 747 718 663 579 b 556 449 564 467 556 453 b 463 350 556 438 472 350 b 458 385 460 350 458 364 b 468 633 458 454 468 553 b 431 717 468 682 461 690 b 393 756 410 735 393 751 b 397 768 393 760 397 764 b 368 788 397 779 386 788 b 290 733 326 788 290 763 b 281 715 290 718 286 715 l 274 715 b 264 701 269 715 264 713 b 253 681 264 689 260 681 b 226 603 246 681 233 644 b 86 232 213 526 104 294 b 60 179 81 214 69 190 b -15 10 40 157 3 32 b -15 -25 -25 -3 -26 -11 b 6 -56 0 -43 -18 -56 b 18 -43 21 -56 18 -50 z "},"N":{"ha":694,"x_min":0,"x_max":0,"o":"m 604 547 b 608 507 604 535 608 519 b 601 489 608 499 607 492 b 597 508 589 482 597 500 b 549 585 597 533 549 564 b 539 601 549 594 544 601 b 497 649 533 601 514 624 b 433 703 481 674 450 699 b 410 721 411 708 410 713 b 350 794 410 739 350 775 b 294 825 350 813 319 825 b 231 792 263 825 231 810 b 203 749 231 779 218 761 b 175 690 188 736 175 710 b 161 654 175 671 169 654 b 165 621 146 654 165 635 b 126 414 165 581 126 444 b 114 372 126 394 119 376 b 82 229 97 363 100 240 b 74 218 72 224 69 218 b 75 213 75 218 75 217 b 39 56 75 181 43 74 b 22 -10 35 38 22 10 b 65 -46 22 -28 65 -31 b 72 -50 65 -54 54 -67 b 110 40 97 -26 94 7 b 156 206 125 75 150 163 b 192 357 157 215 188 357 b 265 622 192 357 235 597 b 275 646 276 631 275 640 b 289 654 275 651 276 654 b 310 628 301 654 310 643 b 324 608 310 608 315 608 b 376 531 339 608 361 531 b 390 522 383 531 390 535 b 414 488 390 504 411 524 b 469 363 417 453 469 392 b 529 289 469 353 496 319 b 594 156 583 238 589 225 b 664 19 603 58 624 19 b 688 28 681 19 688 21 b 672 67 688 32 672 58 b 674 68 672 68 672 68 b 681 67 675 68 678 68 b 688 94 692 60 693 68 b 679 153 683 115 679 129 b 756 761 679 276 742 618 b 790 946 764 851 783 854 b 818 1060 794 999 818 1014 b 767 1129 818 1097 797 1129 b 713 1072 747 1129 713 1097 b 714 1064 713 1069 713 1067 b 700 1060 725 1046 707 1060 b 678 979 686 1060 679 1035 b 654 833 675 893 654 928 b 643 761 654 793 649 761 b 604 547 639 761 604 554 z "},"O":{"ha":708,"x_min":0,"x_max":0,"o":"m 469 72 b 401 46 436 72 438 46 b 378 57 389 46 378 50 b 275 76 378 65 339 74 b 264 108 260 76 264 93 b 250 140 264 121 258 133 b 232 204 238 150 232 174 b 274 376 232 253 247 319 b 457 589 307 446 431 589 b 547 654 465 589 542 654 b 603 601 550 654 575 631 b 657 440 656 547 657 524 l 657 428 b 642 317 657 358 654 331 b 625 276 635 308 626 290 b 519 108 619 243 535 108 b 469 72 503 108 496 72 z m 188 560 b 153 522 188 547 153 536 b 107 444 153 507 107 463 b 101 431 107 436 115 431 b 75 376 82 431 90 376 b 69 363 69 376 69 371 b 71 326 69 351 71 338 b 64 311 71 317 69 311 b 56 274 57 311 54 293 b 78 165 64 179 68 165 b 82 163 81 165 82 164 b 65 133 82 157 65 142 b 79 125 65 129 69 125 b 100 106 92 125 100 117 b 121 76 100 94 108 81 b 121 46 147 67 121 61 b 163 -7 121 26 143 -7 b 179 -18 172 -7 179 -11 b 361 -86 179 -50 290 -86 b 440 -65 400 -86 413 -69 b 576 33 465 -61 576 19 b 596 46 576 40 585 46 b 617 57 607 46 617 51 b 664 143 617 72 664 119 b 663 149 664 146 663 147 b 671 158 657 163 664 158 b 722 232 688 158 710 232 b 778 478 736 232 778 408 b 725 629 778 519 750 599 b 700 685 708 650 700 668 b 704 715 700 694 704 706 b 554 793 704 771 635 793 b 493 789 529 793 506 792 b 393 738 454 781 424 743 b 297 668 379 735 308 668 b 232 604 283 668 232 618 b 185 565 232 590 185 578 b 188 560 185 564 188 561 z "},"P":{"ha":1294,"x_min":0,"x_max":0,"o":"m 733 878 b 1013 850 846 878 992 865 b 1089 828 1021 843 1056 833 b 1251 736 1160 817 1251 760 b 1231 726 1251 729 1246 726 b 1217 713 1214 726 1217 721 b 1103 636 1217 697 1103 643 b 1104 635 1103 635 1103 635 b 1124 642 1108 635 1119 642 b 1125 640 1125 642 1125 640 b 1074 600 1125 626 1078 600 b 807 465 1056 600 840 492 b 800 471 785 447 800 461 b 797 474 800 472 800 474 b 754 457 790 474 775 468 b 658 429 719 439 683 429 b 632 442 643 429 632 433 b 658 469 632 454 658 460 b 640 503 658 479 640 492 b 653 517 640 508 643 513 b 674 564 672 524 663 564 b 685 619 681 564 685 589 b 631 721 685 679 672 721 b 558 543 606 721 558 571 b 549 511 558 528 561 511 b 546 494 533 511 546 501 b 513 410 546 476 521 435 b 444 157 490 333 444 232 b 410 76 444 119 410 107 b 413 50 410 67 413 58 b 404 33 413 43 411 38 b 390 -14 392 25 401 -14 b 385 -21 386 -14 385 -17 b 388 -44 385 -28 388 -37 b 379 -54 388 -50 385 -54 b 368 -81 371 -54 368 -65 b 424 -156 368 -125 385 -156 b 447 -142 436 -156 446 -151 b 499 -51 451 -121 499 -81 b 513 -26 499 -37 506 -26 b 525 17 519 -26 525 -7 b 589 240 525 49 569 240 b 592 229 592 240 592 236 b 600 222 592 224 594 222 b 629 232 606 222 615 225 b 819 299 675 253 743 299 b 847 308 833 299 847 297 b 881 322 847 317 861 322 b 915 336 900 322 915 328 b 933 342 915 350 925 342 b 976 368 946 342 956 368 b 992 365 982 368 988 365 b 1057 403 1019 365 1021 403 b 1089 417 1075 403 1089 410 b 1179 472 1089 424 1129 449 b 1368 607 1282 521 1297 547 b 1438 760 1410 643 1438 713 b 1407 807 1438 788 1428 807 b 1379 844 1397 807 1383 824 b 1196 940 1368 896 1313 924 b 1042 967 1128 950 1079 967 b 1040 965 1040 967 1040 965 b 1057 946 1040 963 1057 953 b 1049 943 1057 944 1054 943 b 890 961 1003 943 913 961 b 828 950 876 961 843 950 b 821 954 824 950 821 951 b 794 968 821 963 810 968 b 767 951 779 968 767 961 b 757 947 767 940 764 939 b 696 965 749 958 719 965 b 669 960 685 965 674 964 b 529 926 656 946 544 939 b 513 926 515 915 513 915 b 490 940 513 935 503 940 b 479 926 478 940 474 935 b 461 926 485 917 481 917 b 426 933 451 932 439 933 b 229 871 403 933 229 889 b 211 860 229 865 222 860 b 108 764 190 860 108 783 b 136 743 108 750 121 743 b 174 761 150 743 164 750 b 239 806 203 797 204 778 b 339 835 263 825 293 835 b 364 849 353 835 364 840 b 386 844 364 857 372 856 b 397 849 408 826 397 840 b 551 878 397 864 551 849 b 586 863 551 893 574 863 b 733 878 628 863 658 878 z "},"Q":{"ha":743,"x_min":0,"x_max":0,"o":"m 240 7 b 190 40 231 7 208 21 b 151 146 161 71 153 90 b 139 215 150 183 144 215 b 129 229 133 215 129 221 b 142 236 129 238 135 240 b 156 267 149 232 156 246 b 172 350 157 333 160 350 b 178 383 182 350 178 368 b 238 554 178 422 238 524 b 250 578 238 568 242 578 b 264 599 257 578 264 588 b 278 618 264 610 271 618 b 290 640 285 618 290 628 b 367 739 290 653 367 739 b 388 771 363 739 372 753 b 442 803 406 790 429 803 b 451 793 449 803 451 800 b 501 768 451 789 475 778 b 628 640 560 747 625 682 b 651 446 631 613 629 453 b 642 418 663 442 661 435 b 610 363 628 406 613 381 b 592 276 604 321 592 321 l 592 256 b 536 164 592 228 578 207 b 479 94 504 132 479 100 b 451 90 479 89 467 86 b 425 129 433 94 425 108 b 411 161 425 147 418 161 b 399 186 404 161 399 172 b 368 263 399 221 374 229 b 319 369 360 306 335 360 b 311 393 306 378 311 383 b 263 426 311 410 272 426 b 256 422 258 426 256 425 b 251 403 256 414 267 403 b 243 393 246 403 243 403 b 286 175 243 372 281 218 b 326 43 294 113 326 106 b 240 7 326 22 258 7 z m 775 769 b 610 936 775 799 669 906 b 496 975 569 957 514 975 b 385 951 490 975 385 960 b 365 940 385 946 376 940 b 344 893 351 940 344 926 b 333 853 344 868 340 853 b 304 831 322 853 314 854 b 289 815 293 803 294 815 b 210 715 276 815 210 733 b 197 699 210 706 206 699 b 183 675 189 699 183 689 b 156 607 183 663 171 631 b 76 215 106 525 76 372 b 89 101 76 149 82 106 b 103 63 97 97 103 79 b 150 -12 103 46 125 13 b 265 -57 190 -51 203 -57 l 289 -57 b 365 -85 347 -57 358 -61 b 404 -179 376 -119 403 -139 b 475 -219 406 -219 450 -204 b 514 -218 492 -229 501 -218 b 519 -224 517 -218 519 -221 b 503 -253 519 -231 514 -242 b 506 -267 489 -267 489 -269 b 560 -140 539 -260 560 -210 b 540 -81 560 -97 554 -81 b 492 -26 517 -81 510 -26 b 479 -18 482 -26 479 -24 b 504 7 479 -10 488 1 b 750 256 544 19 726 203 b 819 547 804 375 819 414 b 806 663 819 593 815 633 b 796 707 800 681 796 699 b 799 713 796 711 797 713 b 775 769 799 713 775 754 z "},"R":{"ha":1340,"x_min":0,"x_max":0,"o":"m 964 963 b 901 944 946 963 921 944 b 788 971 861 944 831 967 b 750 988 772 972 756 979 b 740 988 743 997 740 997 b 678 969 740 979 713 971 b 504 940 590 965 594 944 b 333 878 433 936 351 907 b 308 860 328 868 315 860 b 264 819 290 860 264 833 b 253 807 264 811 272 807 b 117 638 229 807 117 667 b 107 618 117 626 115 618 b 94 585 99 618 94 604 b 190 475 94 514 124 475 b 224 486 206 475 218 478 b 213 490 233 501 219 490 b 203 518 206 490 203 501 b 344 697 203 596 293 688 b 418 735 378 703 385 735 b 422 729 421 735 422 733 b 417 711 422 725 421 719 b 382 564 400 681 393 650 b 358 389 375 511 358 443 b 360 371 358 381 358 374 b 346 371 368 358 351 371 b 338 340 340 371 338 361 b 339 304 338 331 339 315 b 328 239 339 275 335 247 b 290 72 306 211 290 133 b 338 -17 290 21 297 -17 b 406 97 393 -17 385 57 b 458 356 443 168 428 283 b 490 517 475 397 488 458 b 506 576 492 544 499 572 b 521 674 515 582 521 635 b 490 728 521 717 517 728 l 465 728 b 444 739 454 728 444 729 b 468 753 444 747 454 753 b 508 768 482 753 500 760 b 715 789 518 778 592 786 b 925 800 821 792 915 796 b 963 786 935 804 951 797 b 1026 767 974 775 1003 767 b 1103 743 1050 767 1085 756 b 1140 721 1124 728 1133 721 b 1165 743 1149 721 1154 743 b 1236 699 1181 743 1224 699 b 1250 692 1246 699 1250 699 b 1222 646 1250 679 1235 646 b 1117 576 1210 646 1132 594 b 996 508 1111 569 996 521 b 971 500 996 494 981 500 b 944 486 956 500 944 496 b 929 460 944 475 943 465 b 919 468 917 456 914 458 b 908 483 925 476 921 483 b 892 463 892 483 892 475 b 861 443 892 444 861 461 b 835 431 861 436 849 431 b 731 349 781 431 731 399 b 754 247 731 311 742 256 b 767 215 761 243 767 229 b 883 94 767 185 857 94 b 907 83 896 94 899 113 b 935 54 913 67 924 54 b 971 29 946 54 961 43 b 1036 -33 986 7 1036 -6 b 1050 -54 1036 -46 1042 -54 b 1197 -147 1063 -54 1176 -126 b 1276 -187 1211 -161 1264 -187 b 1358 -103 1299 -187 1358 -125 b 1292 11 1358 -72 1333 -29 b 1075 161 1233 67 1097 161 b 976 215 1049 161 1003 215 b 956 231 964 215 956 222 b 943 236 956 244 950 236 b 851 275 919 236 882 275 b 810 271 839 275 819 271 b 793 293 796 271 793 276 b 850 356 793 326 821 356 b 876 351 860 356 865 351 b 1089 407 915 351 992 372 b 1299 485 1160 432 1260 440 b 1333 511 1313 500 1326 511 b 1390 554 1340 511 1365 529 b 1458 683 1431 593 1458 649 b 1453 706 1458 693 1457 700 b 1449 733 1440 719 1449 724 b 1182 903 1449 813 1249 903 l 1176 903 b 1056 936 1128 903 1100 936 b 1015 932 1043 936 1026 932 b 964 963 989 932 986 963 z "},"S":{"ha":767,"x_min":0,"x_max":0,"o":"m 261 829 b 154 742 231 829 154 767 b 136 729 154 731 146 729 b 115 657 124 729 115 690 b 156 564 115 622 125 601 b 215 511 179 535 206 511 b 251 483 225 511 242 499 b 278 467 263 467 271 467 l 279 467 b 296 453 286 467 290 467 b 329 431 300 440 315 431 b 374 403 343 431 364 418 b 393 386 383 389 388 386 b 406 388 396 386 401 388 b 471 358 418 388 460 358 b 486 369 478 358 483 369 b 489 353 488 369 489 365 b 517 322 490 332 499 322 b 590 278 531 322 564 303 l 639 233 l 601 188 b 531 135 564 140 557 135 b 515 111 522 135 517 125 b 511 97 514 101 513 97 b 507 104 510 97 508 100 b 497 115 504 111 501 115 b 481 106 493 115 489 113 b 278 83 467 93 340 83 b 189 117 222 83 213 90 b 161 172 172 135 161 158 b 163 188 161 178 163 183 b 146 210 163 201 156 210 b 81 92 103 210 81 135 b 185 -62 81 22 146 -62 b 200 -61 190 -62 196 -61 b 211 -71 206 -61 208 -62 b 310 -85 214 -81 249 -85 b 525 -53 429 -85 499 -75 b 540 -46 532 -47 538 -46 b 543 -49 542 -46 543 -46 b 546 -53 543 -51 544 -53 b 560 -43 549 -53 554 -49 b 607 -26 569 -33 589 -26 b 638 -14 625 -26 638 -21 b 692 28 638 3 692 11 b 747 93 692 35 717 64 b 803 203 796 139 803 150 b 758 376 803 271 785 376 b 739 400 751 376 743 386 b 682 442 735 414 710 432 b 571 490 654 451 604 472 b 418 565 506 525 464 524 b 374 592 403 579 383 592 b 314 619 343 592 335 594 b 272 646 303 633 283 646 b 225 708 256 646 225 683 b 331 769 225 742 311 740 b 447 797 342 785 431 786 b 565 808 458 804 510 808 b 717 793 636 808 714 803 b 724 785 718 786 721 785 b 736 788 726 785 731 788 b 790 736 751 788 782 760 b 800 728 793 731 796 728 b 831 761 813 728 831 753 b 744 850 831 799 776 850 b 728 849 739 850 732 849 b 718 860 722 849 718 850 b 703 868 718 867 711 868 b 672 867 693 868 682 867 b 658 874 664 867 658 868 b 578 882 658 879 624 882 b 350 863 501 882 393 875 b 289 833 317 853 289 839 b 281 828 289 829 285 828 b 261 829 275 828 268 829 z "},"T":{"ha":938,"x_min":0,"x_max":0,"o":"m 499 861 b 551 847 529 861 551 856 b 550 844 551 846 551 846 b 528 743 539 826 535 810 b 506 651 522 692 506 697 b 483 543 506 601 489 611 b 453 360 475 449 453 474 l 453 335 b 436 242 453 278 447 249 b 438 208 422 233 424 226 b 454 146 449 196 454 168 b 508 89 454 110 476 89 b 572 133 539 89 572 108 b 596 188 572 163 596 165 b 593 214 596 196 593 204 b 614 285 593 232 601 261 b 646 393 628 313 643 363 b 692 632 654 472 676 557 b 767 860 738 857 739 860 l 769 860 b 818 842 796 860 803 842 b 869 856 832 842 856 856 b 881 850 874 856 878 854 b 997 814 892 833 957 814 b 1022 819 1008 814 1017 817 b 1121 888 1063 846 1121 817 b 958 988 1121 943 1031 988 b 847 969 915 988 906 969 b 743 947 782 969 756 964 b 733 947 736 938 733 938 b 638 961 733 956 685 961 b 479 939 549 961 560 942 b 356 917 401 936 433 921 b 211 888 288 913 274 888 b 129 844 153 888 129 875 b 146 824 129 828 136 824 b 164 826 153 824 160 826 b 169 822 167 826 169 825 b 213 811 169 815 193 811 b 236 818 225 811 236 814 b 499 861 236 829 475 861 z "},"U":{"ha":949,"x_min":0,"x_max":0,"o":"m 753 -65 b 740 -78 753 -74 749 -78 b 728 -65 732 -78 728 -74 b 740 -53 728 -57 732 -53 b 753 -65 749 -53 753 -57 z m 864 765 b 844 715 864 747 844 740 b 832 690 844 701 839 690 b 822 678 822 690 822 685 b 753 547 822 658 763 547 b 717 490 749 547 732 521 b 617 338 701 458 657 390 b 544 225 576 285 544 233 b 535 208 544 215 540 208 b 401 72 528 208 411 72 b 363 46 400 72 374 46 b 304 114 343 46 321 71 b 282 317 289 153 282 232 b 326 632 282 451 299 601 b 336 672 332 638 336 657 b 349 710 336 688 343 706 b 383 810 368 721 383 772 b 336 903 383 840 361 903 b 207 794 263 903 207 853 b 189 743 207 775 199 751 b 139 638 178 733 153 638 b 132 615 126 638 132 626 b 108 540 132 599 108 554 b 118 533 108 535 111 533 b 119 524 131 533 132 532 b 103 488 111 518 103 501 b 99 271 100 386 99 318 b 113 153 99 196 103 174 b 164 10 125 128 143 10 b 168 18 165 10 168 13 b 200 0 168 25 182 17 b 232 -53 218 -17 232 -40 b 289 -89 232 -78 261 -89 b 382 -51 329 -89 375 -72 b 429 -19 386 -39 408 -24 b 467 1 450 -15 467 -6 b 500 47 467 8 482 29 b 617 206 528 75 560 118 b 675 293 628 222 675 269 b 731 383 675 315 722 361 b 750 389 736 400 750 411 b 715 196 750 346 725 196 b 704 13 708 196 704 68 b 725 -86 704 -57 710 -75 b 739 -100 735 -93 739 -97 b 703 -112 739 -107 703 -97 b 776 -194 703 -133 754 -194 b 853 -104 808 -194 829 -104 b 925 293 892 -104 894 256 b 1000 599 947 319 963 599 b 1054 807 1013 599 1043 807 b 1063 826 1058 807 1063 815 b 1049 846 1063 838 1056 846 b 1042 871 1043 846 1042 856 b 1046 940 1042 890 1046 919 b 1013 985 1046 972 1039 985 b 936 906 975 985 936 946 b 908 868 936 885 926 872 b 890 853 893 864 890 858 b 892 839 890 849 892 843 b 883 826 892 835 890 831 b 869 794 868 818 888 794 b 864 765 854 794 864 776 z "},"V":{"ha":571,"x_min":0,"x_max":0,"o":"m 344 188 b 322 272 335 188 322 233 l 322 288 b 285 756 322 450 301 718 b 267 810 275 779 267 803 b 250 821 267 817 263 821 b 203 858 226 821 224 858 b 142 781 181 858 151 825 b 135 608 136 756 135 688 b 154 251 135 457 142 267 b 171 160 161 243 169 201 b 211 6 175 51 188 6 b 229 10 217 6 225 10 b 243 -18 239 10 243 1 b 301 -74 243 -49 269 -74 b 393 -6 338 -74 393 -26 b 399 6 393 3 388 13 l 401 6 b 415 60 408 6 415 33 b 414 82 415 67 414 75 b 444 111 414 90 444 85 b 485 236 446 140 485 203 b 483 243 485 239 485 242 b 493 253 476 260 485 253 b 526 335 507 253 526 300 b 533 368 526 354 518 368 b 576 454 544 368 568 415 b 621 593 586 501 606 529 b 685 817 642 678 685 732 b 694 860 685 840 689 860 b 707 949 704 860 707 921 b 706 976 707 965 707 976 b 676 947 704 976 692 964 b 593 771 654 922 639 888 b 581 719 586 754 581 732 b 515 556 581 700 547 615 b 503 514 508 544 503 524 b 493 494 503 503 499 494 b 465 436 488 494 475 468 b 424 346 456 404 438 363 b 399 297 410 329 399 307 b 344 188 399 281 361 188 z "},"W":{"ha":992,"x_min":0,"x_max":0,"o":"m 717 444 l 717 446 b 739 479 717 450 739 474 b 738 481 739 479 739 481 b 726 476 736 481 732 479 b 719 499 704 463 719 483 b 676 563 719 518 693 563 b 556 383 632 563 556 415 b 546 363 556 374 551 365 b 461 192 529 356 461 217 b 463 189 461 190 463 189 b 454 188 471 179 460 188 b 358 53 436 188 372 53 b 336 10 344 53 364 10 b 325 122 328 10 325 35 b 335 632 325 215 332 632 b 342 711 339 632 342 669 b 333 814 342 758 339 811 b 322 867 326 818 322 842 b 310 911 322 892 317 911 b 288 947 297 911 288 932 b 299 974 288 963 299 965 b 257 1011 299 983 267 1011 b 204 989 243 1011 238 989 b 192 967 197 989 192 979 b 176 928 192 954 185 936 b 174 911 167 918 167 911 b 189 871 183 911 189 892 b 178 832 189 854 186 838 b 146 688 158 821 163 700 b 149 678 138 682 139 678 b 161 646 158 678 161 661 b 151 613 161 629 157 613 b 143 574 146 613 143 594 b 158 492 143 540 150 497 b 158 482 169 485 169 482 b 146 271 150 482 146 379 b 144 161 146 235 144 196 b 186 0 144 72 150 0 b 204 -12 197 0 204 -6 b 188 -22 204 -22 196 -22 b 168 -44 178 -22 168 -36 b 178 -53 168 -49 172 -53 b 192 -81 186 -53 192 -65 b 256 -167 192 -115 213 -143 b 279 -175 265 -172 272 -175 b 367 -90 297 -175 367 -108 b 379 -78 367 -83 363 -78 b 400 -61 390 -78 400 -71 b 451 32 400 -39 451 7 b 464 53 451 43 457 53 b 547 208 494 53 508 208 b 542 231 554 208 551 218 b 543 242 525 253 533 242 b 582 310 560 242 582 278 b 594 339 582 325 588 339 b 624 403 604 339 624 382 b 647 422 624 411 632 422 b 751 0 685 422 699 0 b 768 -26 757 0 764 -12 b 807 -53 772 -43 786 -53 b 951 124 871 -53 938 29 b 972 196 954 146 964 178 b 1019 436 986 228 1006 331 b 1050 625 1028 507 1049 547 b 1075 993 1053 724 1075 856 b 1019 1093 1075 1050 1057 1093 b 972 1036 999 1093 972 1060 b 961 1015 972 1025 968 1015 b 947 850 954 1015 947 943 b 929 540 946 672 944 642 b 825 68 919 475 872 68 b 806 117 819 68 817 117 b 794 135 800 117 794 125 b 761 318 793 206 761 268 l 761 325 b 751 364 761 343 761 364 b 740 388 743 364 740 375 b 742 415 740 397 742 408 b 729 450 742 439 738 450 b 717 444 726 450 718 444 z "},"X":{"ha":833,"x_min":0,"x_max":0,"o":"m 272 736 b 278 731 276 736 278 733 b 275 710 278 725 275 715 b 282 703 275 706 276 703 b 351 560 299 703 338 560 b 382 482 360 560 382 482 b 381 481 381 482 381 482 b 401 444 381 476 389 461 b 426 385 418 421 426 401 b 404 338 426 369 418 354 b 324 235 354 278 343 263 b 246 124 310 214 246 149 b 193 61 246 107 193 76 b 115 -62 193 47 115 -49 b 89 -92 115 -76 89 -82 b 135 -122 89 -104 122 -122 b 161 -108 149 -122 161 -117 b 158 -100 161 -106 158 -103 b 204 -22 158 -86 194 -22 b 283 85 219 -22 269 85 l 286 85 b 353 169 300 85 342 169 b 363 183 358 169 363 175 b 454 288 363 199 435 288 b 481 254 469 288 481 264 b 490 232 481 244 485 235 b 553 107 506 225 546 144 b 581 53 558 79 574 53 b 585 63 583 53 585 56 b 599 78 585 72 590 78 b 607 71 606 78 607 75 b 604 51 607 65 604 57 b 688 -7 604 22 643 -7 b 738 104 733 -7 738 65 b 729 149 738 122 733 139 b 663 324 694 219 663 304 b 638 372 663 336 651 358 b 606 446 617 394 606 421 b 631 504 606 467 614 488 b 656 532 644 518 656 529 l 654 533 b 758 642 654 536 758 632 b 757 647 758 644 757 646 b 768 651 757 650 760 651 b 813 686 778 651 799 667 b 932 786 853 739 894 775 b 1013 868 953 793 1013 839 b 942 972 1013 913 976 972 b 850 863 882 972 865 938 b 810 814 846 839 824 814 b 803 815 807 814 806 815 b 676 678 788 815 685 678 b 646 640 671 678 657 660 b 564 551 615 589 581 551 b 506 657 544 551 506 639 b 454 729 506 678 454 704 b 313 875 454 757 360 854 b 303 881 306 878 303 879 b 324 899 303 885 324 886 b 282 917 324 910 296 903 b 201 964 264 935 214 964 b 193 944 197 964 193 956 b 133 901 193 906 133 938 b 192 808 133 881 154 844 b 249 740 224 778 249 749 b 254 733 249 735 251 733 b 272 736 258 733 265 736 z "},"Y":{"ha":547,"x_min":0,"x_max":0,"o":"m 207 671 b 211 653 211 671 211 663 l 211 628 b 256 443 211 569 238 454 b 265 424 263 439 265 432 b 261 389 265 413 261 400 b 276 332 261 369 276 365 l 276 314 b 288 238 276 299 288 250 b 286 235 288 235 288 235 b 263 -11 279 235 263 -11 b 303 -85 263 -44 272 -85 b 369 -53 325 -85 356 -71 b 403 54 382 -36 383 47 b 418 160 414 57 418 93 b 442 265 418 246 421 260 b 465 293 454 268 465 281 b 483 338 465 306 472 325 b 600 618 504 361 582 590 b 654 788 624 654 654 754 b 653 797 654 792 654 796 b 650 804 651 800 650 803 b 651 804 650 806 650 804 b 663 801 654 804 660 801 b 699 910 681 801 699 854 l 699 915 l 699 969 l 664 928 b 504 635 632 889 529 681 b 492 593 497 622 492 604 b 478 572 492 582 485 572 b 465 556 471 572 465 565 b 397 417 465 532 408 417 b 388 475 392 417 388 444 b 374 540 388 506 381 536 b 361 574 367 544 361 560 b 350 599 361 588 356 599 b 338 649 344 599 339 621 b 299 833 336 693 318 781 b 289 872 294 844 290 861 b 261 971 286 892 261 949 b 193 985 261 979 222 985 b 163 979 174 985 163 983 b 167 976 163 978 164 978 b 176 967 174 972 176 969 b 163 957 176 964 172 961 b 147 942 151 953 147 949 b 154 924 147 938 150 932 b 161 906 158 915 161 910 b 153 899 161 901 158 899 b 146 892 149 899 146 896 b 154 869 146 888 149 879 b 174 807 163 853 171 825 b 201 669 176 783 188 669 b 207 671 203 669 206 671 z "},"Z":{"ha":564,"x_min":0,"x_max":0,"o":"m 240 519 b 201 469 240 506 201 483 b 204 464 201 467 204 467 b 169 424 204 453 169 439 b 117 331 169 397 117 365 b 97 300 117 313 108 300 b 22 139 68 300 22 193 b 36 106 22 132 32 106 b 39 117 38 106 39 110 b 67 89 39 146 67 93 b 61 65 67 81 61 75 b 210 26 61 46 131 26 b 299 38 260 26 299 31 b 361 56 299 44 328 51 b 611 136 511 72 611 104 b 586 160 611 165 586 135 b 422 179 586 176 514 179 b 307 172 363 179 313 176 b 257 164 297 167 275 164 b 233 171 243 164 233 164 b 275 253 233 188 254 231 b 299 296 288 267 299 286 b 310 313 299 306 304 313 b 342 347 315 313 331 328 b 446 486 367 389 396 429 b 482 540 465 508 482 532 b 560 658 482 560 560 638 b 571 678 560 669 565 678 b 606 819 583 678 606 786 b 558 882 606 861 590 882 b 526 879 549 882 536 879 b 514 886 519 879 514 881 b 415 894 514 892 472 894 l 382 894 b 224 907 303 894 260 907 b 214 897 217 907 214 904 b 265 840 214 857 224 840 b 308 854 283 840 289 854 b 343 840 328 854 332 840 b 361 849 347 840 353 842 b 371 843 386 869 371 853 b 389 835 371 838 378 835 b 425 838 401 835 418 838 b 482 803 467 838 482 828 b 456 761 482 782 472 767 b 429 735 442 757 429 744 b 417 717 429 724 424 717 b 403 694 410 717 403 706 b 392 683 403 675 399 683 b 360 660 385 683 372 674 b 271 544 296 588 271 556 b 253 533 271 538 267 533 b 240 519 235 533 240 528 z "},"[":{"ha":285,"x_min":0,"x_max":0,"o":"m 211 1039 b 229 994 211 1022 229 1022 b 217 936 229 964 217 951 b 228 914 217 929 221 924 b 221 906 249 889 231 906 b 192 736 210 906 194 754 b 126 332 171 557 147 467 b 86 111 115 261 96 196 b 51 -60 76 24 51 15 b 29 -154 51 -117 29 -103 b 42 -196 29 -175 33 -196 b 54 -228 49 -196 54 -211 b 126 -292 54 -254 92 -292 b 133 -287 131 -292 133 -290 b 147 -281 133 -282 139 -281 b 176 -282 156 -281 168 -282 b 283 -233 213 -282 268 -257 b 278 -226 289 -224 286 -221 b 263 -217 269 -232 263 -228 b 217 -200 263 -204 251 -200 l 175 -200 b 139 -160 140 -200 139 -194 b 149 -125 139 -132 142 -125 b 163 -49 156 -125 163 -83 b 160 -26 163 -40 160 -33 b 174 -12 160 -19 163 -12 b 183 26 181 -12 183 1 b 182 78 183 42 182 63 b 188 108 182 97 185 108 b 224 247 215 108 201 247 b 275 644 238 247 258 622 b 300 864 288 660 288 849 b 315 938 314 882 315 885 b 360 976 315 974 319 976 b 444 1019 422 976 444 988 b 399 1079 444 1060 431 1079 b 360 1076 389 1079 372 1076 b 342 1083 350 1076 342 1078 b 331 1090 342 1089 338 1090 b 306 1089 324 1090 314 1089 b 289 1101 296 1089 289 1092 b 279 1119 289 1114 286 1119 b 211 1039 261 1119 211 1056 z "},"\\":{"ha":517,"x_min":0,"x_max":0,"o":"m 174 740 b 154 743 154 754 138 756 b 151 735 161 738 161 735 b 138 694 143 735 138 713 b 146 667 138 682 140 669 b 214 460 151 664 175 593 b 247 422 218 443 233 426 b 253 413 264 417 265 413 b 246 393 249 413 246 406 b 289 246 246 351 269 261 b 286 235 299 239 296 235 b 283 225 276 235 276 231 b 358 6 301 211 347 25 b 472 -156 378 -28 425 -156 b 478 -151 475 -156 478 -154 b 474 -129 478 -146 474 -136 b 481 -122 474 -125 475 -122 b 485 -111 483 -122 485 -118 b 450 11 485 -85 467 -17 b 361 279 425 54 379 226 b 285 525 351 307 307 518 b 260 585 278 526 268 554 b 174 740 244 644 201 722 z "},"]":{"ha":285,"x_min":0,"x_max":0,"o":"m 218 -211 b 200 -168 218 -194 200 -196 b 213 -108 200 -137 213 -124 b 201 -86 213 -101 208 -96 b 208 -78 181 -61 199 -78 b 238 92 219 -78 235 74 b 303 496 258 271 282 361 b 343 717 314 567 333 632 b 378 888 353 804 378 813 b 400 982 378 944 400 931 b 388 1024 400 1003 396 1024 b 375 1056 381 1024 375 1039 b 303 1119 375 1082 338 1119 b 296 1115 299 1119 296 1118 b 282 1108 296 1110 290 1108 b 253 1110 274 1108 261 1110 b 146 1061 217 1110 161 1085 b 151 1054 140 1051 143 1049 b 167 1044 160 1060 167 1056 b 211 1028 167 1032 176 1028 l 254 1028 b 290 988 289 1028 290 1022 b 279 953 290 960 286 953 b 267 876 272 953 267 911 b 269 854 267 868 269 861 b 256 840 269 847 267 840 b 246 801 249 840 246 826 b 247 750 246 786 247 765 b 242 718 247 731 244 718 b 206 581 214 718 228 581 b 154 183 192 581 171 206 b 129 -36 142 168 142 -21 b 114 -110 115 -54 114 -57 b 69 -149 114 -146 110 -149 b -15 -192 7 -149 -15 -160 b 31 -251 -15 -232 -1 -251 b 69 -249 40 -251 57 -249 b 88 -257 79 -249 88 -251 b 99 -262 88 -262 92 -262 b 124 -261 106 -262 115 -261 b 140 -274 133 -261 140 -264 b 150 -292 140 -286 143 -292 b 218 -211 168 -292 218 -228 z "},"^":{"ha":461,"x_min":0,"x_max":0,"o":"m 354 892 b 213 724 340 892 282 822 b 176 679 201 708 186 689 b 161 639 164 665 172 639 b 147 613 154 639 147 626 b 174 586 147 596 157 586 b 199 599 188 586 199 592 b 210 638 199 624 201 632 b 256 694 215 642 235 667 b 367 803 310 767 347 803 b 382 771 378 803 382 792 b 413 697 382 738 406 729 b 508 606 429 619 443 606 b 544 646 540 606 544 615 b 496 821 544 706 515 821 b 490 832 486 821 490 825 b 475 882 490 840 483 861 b 421 925 461 915 450 925 b 354 892 381 925 379 892 z "},"_":{"ha":513,"x_min":0,"x_max":0,"o":"m 144 -1 b 113 0 133 -1 122 0 b 65 -15 92 0 76 -15 b 60 -14 63 -15 61 -15 b 51 -40 47 -6 42 -22 b 215 -86 69 -72 119 -86 b 329 -72 272 -86 324 -79 b 389 -60 335 -65 361 -60 b 464 -14 429 -60 464 -44 b 356 10 464 -8 376 10 b 317 -1 343 10 325 -1 b 311 6 314 -1 311 0 b 297 14 311 11 306 14 b 225 -4 283 14 250 -4 b 174 10 217 -4 188 10 b 144 -1 164 10 164 -1 z "},"`":{"ha":282,"x_min":0,"x_max":0,"o":"m 210 950 b 178 918 210 924 178 944 b 189 899 178 907 183 899 b 200 879 197 899 200 889 b 244 742 200 851 235 742 b 261 704 250 742 257 725 b 350 615 268 671 326 615 b 363 664 361 615 363 635 l 363 717 b 336 851 363 775 361 819 b 322 886 325 865 322 874 b 324 910 322 893 324 901 b 251 1001 324 946 288 1001 b 210 950 229 1001 210 974 z "},"a":{"ha":571,"x_min":0,"x_max":0,"o":"m 349 165 b 350 163 349 164 350 163 b 317 161 353 158 339 158 b 278 153 293 165 278 161 b 258 143 278 144 269 143 b 238 144 251 143 244 144 b 186 133 224 144 200 133 b 175 144 179 133 175 136 b 204 167 175 160 185 167 b 226 178 215 167 226 163 b 251 190 226 185 238 190 b 278 204 265 190 278 197 b 304 217 278 211 290 217 b 329 229 318 217 329 222 b 356 242 329 236 342 242 b 376 236 369 242 376 242 b 349 165 376 226 349 175 z m 250 560 b 206 526 231 560 226 526 b 188 506 196 526 188 517 b 176 493 188 488 183 493 b 100 379 143 493 100 413 b 131 319 100 336 104 319 b 183 361 158 319 183 342 b 181 372 183 365 183 368 b 190 378 169 389 182 378 b 260 449 210 378 243 449 b 390 504 283 449 354 504 b 431 451 424 504 431 490 b 335 308 431 371 407 329 b 65 94 171 261 65 194 b 106 10 65 51 83 10 b 122 -4 115 10 122 4 b 151 -10 122 -18 142 -10 b 194 -21 165 -10 179 -21 b 261 -10 218 -21 233 -10 b 328 -28 293 -10 328 -18 b 326 -36 328 -31 326 -33 b 360 -69 326 -58 340 -69 b 504 49 403 -69 496 10 b 517 88 507 63 513 81 b 554 199 536 119 536 150 b 603 371 563 219 590 371 b 610 411 607 371 610 388 b 554 576 610 481 604 554 b 531 607 529 588 531 594 b 432 633 531 622 485 633 b 363 622 415 633 363 631 b 358 604 363 613 399 604 b 329 592 343 604 329 599 b 304 578 329 585 318 578 b 278 564 290 578 278 572 b 250 560 278 549 261 560 z "},"b":{"ha":778,"x_min":0,"x_max":0,"o":"m 590 288 b 553 261 574 288 571 261 b 543 264 550 261 547 263 b 531 257 522 272 531 265 b 360 207 531 247 375 214 b 321 193 340 197 329 193 b 292 214 311 193 300 214 b 285 207 289 214 288 213 b 251 192 281 196 265 192 b 228 206 239 192 228 196 b 281 269 228 226 281 250 b 347 333 281 285 331 333 b 357 353 353 333 357 342 b 383 372 357 382 383 350 b 394 379 383 388 388 379 b 488 429 410 379 471 429 b 500 436 494 429 500 421 b 536 458 500 451 518 440 b 554 469 544 467 550 469 b 579 449 564 469 563 449 b 582 465 593 449 582 458 b 597 472 582 469 589 472 b 678 419 626 472 678 450 b 619 319 678 394 638 319 b 607 308 610 319 607 315 b 610 289 607 301 610 294 b 606 283 610 286 610 283 b 590 288 603 283 594 288 z m 274 465 b 257 504 274 476 257 493 b 265 531 257 511 260 519 b 286 611 274 546 283 583 b 329 876 294 688 329 792 b 319 926 329 906 326 926 b 306 960 313 926 306 942 b 294 990 306 981 301 990 b 196 740 244 990 204 808 b 164 572 194 724 169 572 b 149 478 164 572 149 508 b 153 463 149 468 149 463 b 156 453 164 463 165 460 b 118 338 132 438 118 381 b 129 271 118 311 122 283 b 117 263 139 256 128 263 b 93 217 104 263 93 239 b 103 179 93 203 103 190 b 81 133 103 164 81 150 b 93 106 81 125 93 114 b 78 58 93 93 78 82 b 79 33 78 50 79 42 b 56 -46 79 -4 56 -18 b 113 -104 56 -75 79 -104 b 144 -96 136 -104 144 -100 b 181 -8 144 -87 179 -28 b 193 38 182 13 188 33 b 222 149 204 46 210 149 b 228 115 226 149 228 138 b 247 74 228 88 233 74 b 267 56 257 74 267 65 b 279 36 267 43 272 36 b 306 53 286 36 294 43 b 310 42 329 74 310 49 b 315 38 310 39 313 38 b 367 56 326 38 357 54 b 526 92 450 65 493 75 b 578 106 543 100 564 106 b 594 103 585 106 588 103 b 701 151 613 103 701 136 b 715 165 701 154 692 156 b 764 222 731 172 751 196 b 799 268 776 249 792 268 b 810 322 807 268 810 293 b 794 401 810 357 804 397 b 817 417 775 410 817 407 b 763 500 817 438 776 500 b 746 515 753 500 746 507 b 711 526 746 525 729 526 b 674 525 697 526 682 525 b 646 533 654 525 646 528 b 651 547 646 538 651 544 b 646 551 651 550 649 551 b 564 521 633 551 585 521 b 551 524 558 521 557 524 b 475 496 543 524 485 496 l 474 496 b 464 493 474 503 469 501 b 396 439 458 486 428 461 b 289 353 364 417 317 378 b 236 310 257 322 243 310 b 232 321 232 310 232 314 b 246 358 232 338 236 358 b 265 407 253 358 251 396 b 265 415 285 422 275 415 b 256 431 258 415 256 422 b 274 465 256 446 274 454 z "},"c":{"ha":442,"x_min":0,"x_max":0,"o":"m 86 175 b 96 93 86 131 90 96 b 108 60 103 89 108 74 b 215 -21 108 14 172 -15 b 226 -51 229 -22 226 -36 b 269 -68 226 -64 236 -68 b 367 13 318 -68 365 -29 b 400 64 367 39 400 38 b 375 110 400 92 400 110 b 342 97 360 110 342 106 b 321 86 342 90 332 86 b 264 167 271 86 264 117 b 338 421 264 251 296 378 b 354 454 346 431 354 444 b 429 526 354 474 408 526 b 444 493 438 526 444 511 b 485 432 444 460 464 432 b 517 533 514 432 517 478 b 469 643 517 607 501 643 b 406 664 440 643 435 664 b 297 625 375 664 318 629 b 183 500 269 619 185 526 b 164 475 182 486 174 475 b 147 447 140 475 165 453 b 115 382 128 440 125 401 b 82 299 100 349 106 328 b 78 285 68 282 71 285 b 88 222 83 285 88 263 b 86 175 88 208 86 189 z "},"d":{"ha":556,"x_min":0,"x_max":0,"o":"m 431 299 b 451 264 444 294 451 282 b 421 196 451 242 442 214 b 396 161 408 185 396 168 b 372 128 396 154 385 139 b 285 36 354 113 311 36 b 267 25 275 36 267 31 b 188 -29 267 17 200 -29 b 185 3 186 -29 185 -17 b 213 150 185 63 192 132 b 274 217 232 168 246 217 b 288 229 289 217 288 222 b 400 315 288 244 393 304 b 417 333 406 325 414 333 b 431 299 417 333 410 304 z m 299 442 l 286 442 b 239 414 263 442 261 414 l 224 414 b 154 372 194 414 182 372 b 139 368 143 372 139 369 b 164 349 139 363 164 354 b 144 344 164 346 153 344 l 128 344 b 113 326 118 344 113 342 b 100 285 113 315 107 297 b 44 76 75 239 44 108 b 61 36 44 56 61 60 b 47 10 61 24 56 10 b 35 -19 39 10 35 -3 b 146 -139 35 -85 96 -139 b 228 -107 183 -139 228 -117 b 236 -101 228 -103 232 -101 b 256 -103 242 -101 249 -103 b 267 -93 263 -103 267 -101 b 276 -85 267 -79 271 -85 b 396 36 293 -85 396 18 b 415 57 396 43 406 53 b 451 124 431 63 451 101 b 461 139 451 133 449 139 b 494 190 468 139 483 163 b 554 242 513 235 521 242 b 588 257 579 242 588 246 b 585 286 588 267 585 276 b 594 310 585 299 594 297 b 561 424 594 339 567 424 b 551 449 556 424 551 435 b 539 475 551 463 546 475 b 525 489 532 475 525 481 b 543 493 525 503 536 493 b 551 508 549 493 551 500 b 542 532 551 517 547 526 b 511 613 526 547 526 594 b 513 629 500 625 501 629 b 515 647 524 629 524 636 b 472 822 503 664 472 792 b 461 833 472 831 468 833 b 443 832 456 833 449 832 b 428 839 436 832 432 833 b 433 844 422 847 424 850 b 449 849 442 840 449 842 b 436 861 449 858 443 861 b 407 843 425 861 417 843 b 389 856 401 843 394 856 b 371 799 378 856 371 810 b 392 735 371 774 378 750 b 454 579 418 704 454 611 b 461 546 454 565 449 554 b 474 494 469 540 474 517 b 461 457 474 479 472 457 b 425 467 451 457 432 467 b 422 465 424 467 422 467 b 404 458 422 460 414 458 b 368 460 393 458 378 460 b 299 442 336 460 325 442 z "},"e":{"ha":558,"x_min":0,"x_max":0,"o":"m 446 482 b 217 238 446 438 299 278 b 189 228 204 231 194 228 b 182 235 185 228 182 229 b 221 319 182 247 194 274 b 356 474 258 386 282 438 b 426 499 390 490 413 499 b 446 482 436 499 446 493 z m 254 526 b 206 475 229 526 225 475 b 154 418 186 475 154 440 b 103 351 154 388 103 393 b 92 319 103 335 97 319 b 71 242 86 319 71 242 b 57 203 78 242 57 213 b 79 139 57 189 64 171 b 385 13 124 44 208 13 b 485 40 429 13 450 19 b 533 85 513 57 533 75 b 568 143 533 110 568 111 b 479 189 568 188 524 189 b 404 176 446 189 414 185 b 388 176 392 165 388 165 b 353 188 388 183 376 188 b 294 185 338 188 310 185 b 253 200 269 185 253 189 b 299 228 253 211 283 228 b 307 225 303 228 306 225 b 344 256 310 225 326 239 b 524 492 411 317 524 368 b 515 526 524 510 521 526 b 504 546 510 526 504 536 b 486 567 504 556 494 565 b 401 583 426 572 415 575 b 388 579 393 588 388 586 b 371 571 388 572 379 571 b 350 572 364 571 357 572 b 336 565 342 572 336 571 b 315 553 336 558 326 553 b 306 533 296 553 306 543 b 279 525 306 528 296 525 b 254 526 272 525 264 526 z "},"f":{"ha":443,"x_min":0,"x_max":0,"o":"m 471 868 b 451 881 461 868 458 881 b 431 860 447 881 440 876 b 383 817 418 840 397 821 b 361 796 364 811 361 807 b 363 781 361 792 363 786 b 342 733 363 754 354 733 b 300 668 326 733 313 713 b 254 588 293 643 272 607 b 238 551 244 576 238 561 b 239 540 238 547 239 543 b 204 496 239 524 204 517 b 179 468 204 486 192 472 b 75 360 138 456 75 390 b 103 332 75 342 88 332 b 144 351 115 332 131 338 b 160 364 151 358 157 364 b 161 358 161 364 161 361 b 119 213 161 300 119 267 b 122 189 119 204 122 197 b 89 121 122 158 89 142 b 93 115 89 118 90 115 b 101 119 94 115 99 119 b 106 108 104 119 106 115 b 83 33 106 88 94 40 b 79 26 81 32 79 29 b 93 -14 79 14 93 -7 b 92 -17 93 -15 93 -17 b 67 -146 76 -17 67 -114 b 101 -218 67 -182 101 -190 b 107 -226 101 -224 103 -226 b 153 -187 121 -226 153 -193 b 163 -171 153 -178 157 -171 b 192 -74 172 -171 186 -81 b 236 61 213 -47 213 35 b 251 99 246 72 251 88 b 249 121 251 107 249 113 b 256 151 249 131 251 143 b 274 250 263 165 271 208 b 318 369 279 339 290 319 b 328 392 325 382 328 389 b 328 393 328 393 329 393 b 318 389 326 393 322 392 b 308 383 313 386 310 383 l 307 385 b 317 399 307 386 310 390 b 326 417 324 408 326 413 b 324 431 326 421 324 425 b 394 453 324 439 347 446 b 528 507 464 463 528 489 b 563 553 528 526 563 539 b 460 622 563 589 489 622 b 450 615 454 622 450 619 b 431 604 450 610 440 604 b 415 618 421 604 415 607 b 439 679 415 639 431 676 b 450 703 446 682 450 693 b 561 811 450 733 531 811 b 585 825 578 811 585 814 b 519 883 585 861 550 883 b 471 868 503 883 486 868 z "},"g":{"ha":740,"x_min":0,"x_max":0,"o":"m 293 364 b 296 361 294 364 296 363 b 268 311 296 356 288 338 b 163 190 226 251 172 190 b 154 203 157 190 154 196 b 175 239 154 215 164 232 b 206 314 193 250 201 271 b 224 307 207 326 218 307 b 293 364 235 307 288 364 z m 569 643 b 458 579 569 615 458 599 b 446 574 458 572 463 567 b 439 575 444 575 442 575 b 388 546 426 575 407 565 b 350 517 369 529 354 517 b 349 518 349 517 349 517 b 347 519 349 518 349 519 b 296 479 342 519 322 503 b 194 363 214 404 194 381 b 178 344 194 353 186 344 b 97 188 150 343 97 249 b 150 122 97 161 124 122 b 196 139 164 122 176 139 b 521 450 221 139 521 426 b 529 463 521 457 519 463 b 543 501 536 463 543 479 b 563 538 543 529 546 538 l 564 538 b 618 324 610 538 606 536 b 621 229 621 285 621 253 b 613 178 621 194 618 178 b 597 143 604 178 599 163 b 538 39 593 97 550 78 b 519 10 533 24 524 10 b 454 -43 514 10 485 -14 b 364 -101 424 -72 383 -99 b 238 -135 292 -114 251 -124 b 188 -143 229 -140 210 -143 b 129 -129 158 -143 129 -137 b 114 -122 129 -119 122 -122 b 51 -94 94 -122 51 -104 b -8 -82 51 -89 18 -82 b -78 -149 -54 -82 -78 -104 b 24 -254 -78 -174 1 -254 b 113 -283 56 -254 63 -279 b 288 -300 151 -286 238 -300 b 433 -247 326 -300 351 -287 b 496 -222 464 -232 489 -222 b 499 -225 499 -222 496 -225 b 585 -158 503 -225 521 -212 b 703 38 626 -124 693 -12 b 714 74 704 46 710 64 b 743 354 726 107 743 250 b 711 519 743 413 736 449 b 590 715 685 594 653 715 b 574 706 583 715 578 711 b 543 689 564 689 543 715 b 569 643 543 667 569 658 z "},"h":{"ha":686,"x_min":0,"x_max":0,"o":"m 36 18 b 79 -83 36 -8 63 -83 l 110 -83 b 190 90 176 -83 175 -74 b 210 176 194 129 203 167 b 217 189 215 182 217 186 b 208 200 217 194 208 193 b 329 339 208 219 311 339 b 414 390 346 339 394 390 b 431 404 424 390 431 397 b 457 417 431 411 443 417 b 483 429 471 417 483 422 b 522 443 483 436 500 443 b 553 432 549 443 553 438 b 551 419 553 428 551 425 b 569 394 551 411 569 400 b 557 390 569 392 567 390 b 533 364 543 390 535 379 b 513 293 531 329 533 310 b 489 240 503 286 493 263 b 432 29 476 169 432 85 b 499 -49 432 -19 447 -49 b 561 -31 524 -49 550 -42 b 696 267 586 -6 674 190 b 724 382 700 279 724 353 b 683 501 724 411 711 442 b 608 546 667 536 651 546 b 574 533 588 546 574 540 b 554 524 574 525 564 524 l 546 524 b 394 433 511 524 450 486 b 249 313 311 351 264 313 b 243 321 244 313 243 315 b 268 432 243 350 263 389 b 297 567 275 483 297 522 b 294 590 297 572 294 583 b 300 599 294 596 296 599 b 315 657 310 599 308 649 b 343 782 325 669 331 772 b 368 911 351 788 356 911 b 378 950 374 911 378 928 b 376 988 378 963 376 976 b 381 1032 376 1013 381 1018 b 351 1094 381 1056 364 1094 b 243 779 313 1094 247 807 b 222 696 238 743 222 747 b 211 644 222 672 218 649 b 174 501 199 638 185 583 b 156 444 169 472 163 447 b 144 415 149 442 144 429 b 132 365 144 401 139 379 b 101 264 118 339 115 289 b 97 254 99 260 97 257 b 111 222 97 243 111 238 b 90 182 111 204 101 182 b 79 160 83 182 79 172 b 36 18 79 119 36 54 z "},"i":{"ha":265,"x_min":0,"x_max":0,"o":"m 279 989 b 225 942 265 989 225 960 b 261 875 225 931 261 888 b 256 846 261 867 235 846 b 263 831 271 846 263 839 b 331 807 263 818 293 807 b 390 900 365 807 390 850 b 382 969 390 921 382 950 b 364 989 382 986 393 989 b 308 1015 332 989 329 1015 b 279 989 290 1015 301 989 z m 218 553 b 192 503 218 504 192 550 b 167 428 192 460 167 467 b 101 286 167 399 115 286 b 90 256 97 286 90 269 b 99 240 90 247 93 240 b 104 233 107 240 122 253 b 88 186 94 224 88 203 b 75 156 88 169 82 156 b 43 54 57 156 43 100 b 75 -26 43 24 60 -26 b 81 -32 79 -26 81 -28 b 79 -46 81 -36 79 -40 b 103 -65 79 -56 82 -65 b 192 38 160 -65 192 -10 b 218 115 192 76 218 71 b 236 176 218 135 226 163 b 264 293 246 190 258 242 b 288 393 269 344 281 389 b 299 440 294 397 299 418 l 299 449 b 326 561 299 508 326 494 b 283 664 326 599 310 664 b 218 553 246 664 218 589 z "},"j":{"ha":292,"x_min":0,"x_max":0,"o":"m 333 972 b 271 1015 333 993 283 1015 b 263 1010 265 1015 263 1014 l 263 1004 b 236 985 263 994 261 989 b 171 889 206 979 171 931 b 197 850 171 878 197 861 b 185 838 197 846 185 840 b 199 835 185 836 188 835 b 225 853 218 835 219 853 b 236 839 228 853 229 850 b 271 815 244 824 257 815 b 358 893 301 815 358 856 b 331 960 358 908 331 942 b 333 972 331 965 333 968 z m 221 576 b 197 597 207 576 214 597 b 161 556 185 597 161 575 b 167 542 161 550 163 546 b 199 450 176 531 199 476 b 193 436 199 443 197 439 b 186 425 188 433 186 429 b 192 397 186 418 192 408 b 168 319 192 368 178 319 b 154 288 160 319 154 315 b 142 247 154 265 149 247 b 129 218 135 247 129 233 b 76 121 129 201 106 158 b 25 40 47 83 25 47 b 1 11 25 33 14 21 b -60 -53 -19 -4 -32 -53 b -74 -60 -71 -53 -74 -56 b -72 -68 -74 -62 -72 -65 b -101 -94 -72 -75 -85 -87 b -178 -146 -122 -104 -156 -125 b -242 -182 -200 -167 -228 -182 b -367 -224 -279 -182 -367 -211 b -386 -235 -367 -229 -375 -235 b -406 -264 -399 -235 -406 -247 b -344 -350 -406 -296 -381 -350 b -315 -347 -336 -350 -325 -347 b -301 -354 -307 -347 -301 -349 b -274 -367 -301 -362 -290 -367 b -147 -329 -242 -367 -186 -351 b -78 -293 -114 -310 -82 -293 b 50 -190 -75 -293 47 -190 b 142 -92 56 -190 142 -96 b 175 -44 142 -86 157 -65 b 235 72 206 -10 232 40 b 244 92 236 81 239 88 b 286 189 264 106 286 158 b 296 221 286 207 289 221 b 304 246 300 221 304 232 b 299 317 304 271 299 296 b 308 485 299 332 308 439 b 293 542 308 515 304 531 b 272 581 282 553 272 569 b 264 593 272 589 269 593 b 221 576 251 593 231 576 z "},"k":{"ha":596,"x_min":0,"x_max":0,"o":"m 361 876 b 311 961 361 924 342 961 b 240 940 300 961 240 953 b 243 933 240 938 243 936 b 218 890 243 921 218 906 b 235 825 218 878 235 836 b 225 811 235 818 232 814 b 208 775 217 808 208 790 b 186 674 208 728 190 735 b 157 506 182 611 157 564 b 146 469 157 485 151 469 b 135 403 140 469 136 439 b 93 208 133 307 110 299 b 47 -50 79 136 50 22 b 36 -79 46 -78 43 -79 l 29 -79 b 26 -83 28 -79 26 -82 b 82 -126 26 -103 63 -126 b 94 -118 90 -126 94 -124 b 88 -92 94 -112 75 -92 b 106 -11 99 -92 103 -71 b 126 1 107 13 115 1 l 128 3 b 108 36 128 8 108 31 l 108 38 b 131 58 122 38 131 24 b 144 92 131 76 138 92 b 157 74 151 92 157 83 b 353 -22 157 50 281 -10 b 492 -79 394 -29 446 -79 b 601 8 532 -79 601 -25 b 599 11 601 11 600 11 b 588 7 596 11 592 7 b 500 78 569 7 517 78 b 463 104 492 78 475 90 b 390 131 447 121 422 131 b 332 143 363 131 336 136 b 300 156 328 150 313 156 b 240 208 268 156 267 208 b 222 218 229 208 222 213 b 306 308 222 228 268 276 b 526 417 338 335 504 417 b 547 429 538 417 547 422 b 574 443 547 436 560 443 b 600 456 588 443 600 449 b 619 469 600 463 608 469 b 668 504 635 469 668 486 b 639 539 668 515 651 539 b 572 510 628 539 610 529 b 225 356 517 481 310 389 b 208 383 215 351 208 361 b 222 417 208 401 215 417 b 235 449 229 417 235 432 b 261 544 235 497 261 485 b 361 876 261 653 361 753 z "},"l":{"ha":236,"x_min":0,"x_max":0,"o":"m 126 51 b 181 114 154 51 181 75 b 194 150 181 129 188 146 b 207 208 201 154 207 179 b 218 261 207 238 213 261 b 246 365 228 261 239 353 b 249 386 254 381 256 390 b 250 422 242 382 242 397 b 274 461 257 444 268 461 b 275 460 275 461 274 460 b 285 513 281 460 285 482 b 299 579 285 544 292 575 b 311 619 306 583 311 603 b 324 651 311 636 317 651 b 331 658 328 651 331 654 b 317 711 331 672 317 700 b 321 717 317 714 318 717 b 351 921 333 717 351 853 b 299 972 351 964 343 972 b 283 954 286 972 283 964 b 285 939 283 949 285 944 b 274 925 285 931 282 925 b 208 692 256 925 221 714 b 201 672 204 683 201 678 b 206 649 201 664 206 658 b 204 636 206 644 206 642 b 122 329 174 550 136 451 b 81 201 115 269 81 271 l 81 175 b 68 117 81 135 68 132 b 126 51 68 83 100 51 z "},"m":{"ha":951,"x_min":0,"x_max":0,"o":"m 569 396 b 494 469 569 426 528 469 b 383 383 476 469 436 438 b 307 314 335 335 315 314 b 303 324 304 314 303 318 b 332 482 303 399 322 388 b 356 604 339 543 356 575 b 321 718 356 640 321 696 b 325 729 321 725 321 729 b 332 746 329 729 332 736 l 332 753 b 274 779 329 768 303 779 b 221 747 249 779 221 772 b 208 729 221 736 215 729 b 196 697 201 729 196 714 b 182 657 196 681 189 661 b 174 636 175 653 174 646 l 174 621 b 149 518 174 590 149 553 b 151 490 149 507 151 500 b 122 411 151 457 122 444 b 138 375 122 396 128 382 b 143 368 142 372 143 369 b 133 364 143 365 140 364 b 117 307 122 364 117 344 b 106 242 117 276 111 246 b 90 119 92 233 90 171 l 90 64 b 103 15 90 38 94 18 b 117 -19 111 13 117 -3 b 153 -60 117 -46 128 -60 b 232 -31 179 -60 215 -47 b 281 74 250 -12 281 56 b 279 78 281 76 281 78 b 308 135 279 82 308 129 b 351 206 308 149 351 194 b 381 251 351 211 365 232 b 497 382 460 351 488 382 b 506 333 506 382 506 361 l 506 318 b 500 163 506 276 500 203 b 558 54 500 99 514 54 b 654 172 600 54 654 157 b 671 182 654 179 657 182 b 683 190 682 182 683 186 b 682 201 683 194 682 197 b 692 208 682 206 685 208 b 700 211 699 208 700 210 b 699 218 700 213 699 215 b 794 339 699 236 794 324 b 799 349 794 347 796 349 b 806 347 800 349 803 347 b 849 382 813 347 831 361 l 888 424 l 879 371 b 832 142 869 307 849 206 b 819 50 824 110 819 78 b 840 -18 819 14 826 -12 b 857 -53 860 -25 847 -53 b 932 111 874 -53 919 47 b 971 410 958 250 971 299 b 967 431 971 424 969 431 b 953 419 961 431 956 419 b 950 439 951 419 950 424 b 938 469 950 454 944 469 b 929 475 932 469 929 471 b 931 481 929 476 929 478 l 931 483 b 908 489 931 488 922 489 l 897 489 b 710 319 857 486 778 414 b 661 263 696 300 674 274 b 638 231 649 251 638 238 b 596 182 638 219 604 182 b 592 269 593 182 592 221 b 569 396 592 360 569 346 z "},"n":{"ha":618,"x_min":0,"x_max":0,"o":"m 106 -28 b 190 43 138 -28 176 -1 b 247 157 201 81 247 117 b 361 285 247 165 299 224 b 501 393 443 365 479 393 b 540 274 539 393 538 388 b 576 106 543 165 558 106 b 638 274 601 106 638 250 b 632 283 638 281 635 283 b 626 282 631 283 628 282 b 601 375 619 282 613 371 b 586 396 593 378 586 386 b 521 464 586 418 542 464 b 322 347 461 464 332 374 b 307 343 319 338 307 332 b 351 489 307 372 351 460 b 365 521 351 506 358 521 b 376 554 372 521 376 536 b 351 594 376 578 369 590 b 333 608 336 599 333 603 b 336 625 333 613 336 618 b 324 644 336 631 331 644 b 301 629 315 644 306 629 b 300 636 300 629 300 632 b 292 649 300 644 299 649 b 221 596 272 649 221 619 b 207 572 221 583 215 572 b 199 543 199 572 199 558 b 190 513 199 529 199 515 b 158 444 169 504 175 456 b 138 390 144 436 157 390 b 119 356 129 390 121 375 b 94 261 115 304 99 319 b 67 161 90 201 67 222 b 69 85 67 139 69 106 b 60 32 69 47 60 51 b 106 -28 60 -3 76 -28 z "},"o":{"ha":465,"x_min":0,"x_max":0,"o":"m 360 178 b 201 65 360 115 253 65 b 163 117 174 65 163 83 b 222 275 163 157 183 218 b 238 318 232 290 238 307 b 240 333 238 326 225 343 b 247 331 243 332 244 331 b 293 358 263 331 279 358 b 299 357 294 358 297 358 b 303 369 306 353 307 357 b 310 390 299 382 301 390 b 321 358 318 390 322 375 b 297 325 318 324 297 340 b 307 311 297 317 301 311 b 360 178 322 311 360 229 z m 267 464 b 199 403 247 464 199 419 b 200 399 199 401 199 400 b 182 399 210 389 189 399 b 129 329 164 399 142 329 b 125 331 128 329 126 331 b 53 118 96 331 53 188 b 221 -8 53 7 111 -8 b 294 6 258 -8 292 -4 b 322 19 297 14 310 19 b 439 110 344 19 439 96 b 443 125 439 115 424 113 b 464 256 457 133 464 199 b 450 340 464 297 460 333 b 397 411 424 357 431 411 b 394 424 383 411 369 404 b 490 447 413 438 454 447 b 511 446 497 447 504 446 b 515 454 514 446 515 449 b 433 519 515 506 490 519 b 374 508 404 519 376 517 b 281 475 368 492 281 496 b 267 464 281 458 279 464 z "},"p":{"ha":839,"x_min":0,"x_max":0,"o":"m 646 497 b 678 511 656 497 665 511 b 753 431 708 511 753 468 b 703 383 753 399 746 392 b 363 351 660 375 388 372 b 347 340 354 344 349 340 b 346 342 347 340 346 340 b 350 354 346 343 347 347 b 379 383 354 365 367 379 b 510 481 396 389 492 481 b 518 479 513 481 515 479 b 581 514 542 479 581 500 b 583 519 581 518 582 519 b 604 501 589 519 601 501 b 624 517 613 501 617 517 b 646 497 629 517 639 497 z m 885 394 b 817 540 885 464 854 540 l 801 540 b 768 553 790 540 781 542 b 644 575 751 567 690 575 b 593 564 615 575 593 572 b 569 549 593 556 583 549 b 408 469 533 549 435 499 b 357 443 394 453 371 443 b 347 449 351 443 347 444 b 360 494 347 461 360 474 b 306 654 360 546 349 654 b 240 615 304 654 240 621 l 242 615 b 243 614 243 615 243 615 b 215 561 243 606 215 567 b 217 547 215 556 217 553 b 207 525 217 542 215 536 b 197 510 200 517 197 511 b 208 515 199 510 203 511 b 221 521 214 519 219 521 b 222 519 222 521 222 521 b 218 511 222 518 221 515 b 190 496 214 503 200 496 b 165 446 178 496 165 465 b 175 431 165 436 168 431 b 181 428 179 431 181 429 b 172 418 181 425 178 422 b 149 372 163 413 153 392 b 100 211 142 331 107 250 b 61 85 96 188 61 111 b 50 72 61 78 61 72 b 42 67 44 72 42 69 b 46 50 42 61 46 54 b 40 46 46 47 44 46 b 3 -132 28 46 18 -1 b -19 -218 -1 -169 -11 -207 b -28 -231 -25 -225 -28 -229 l -26 -231 b -18 -226 -25 -231 -22 -229 b -10 -224 -14 -224 -12 -224 b -1 -237 -4 -224 -1 -228 b -15 -258 -1 -250 -7 -258 b -28 -275 -24 -258 -28 -265 b 29 -343 -28 -299 1 -343 b 71 -310 42 -343 61 -314 b 131 -236 103 -297 131 -264 b 143 -206 131 -219 136 -206 b 157 -186 150 -206 157 -197 b 183 -121 157 -175 169 -146 b 217 -25 197 -96 213 -53 b 283 201 229 49 263 160 b 315 318 300 235 313 279 b 317 319 315 319 315 319 b 340 290 319 319 329 308 b 493 206 368 246 440 206 b 528 192 511 206 528 199 b 547 185 528 186 535 185 b 660 200 579 185 640 197 b 783 233 711 207 747 233 b 885 394 817 233 885 329 z "},"q":{"ha":594,"x_min":0,"x_max":0,"o":"m 219 179 b 138 125 200 179 161 125 b 146 153 122 125 125 133 b 168 193 160 165 168 182 b 172 218 168 203 161 218 b 222 256 179 218 201 235 b 385 381 261 293 353 343 b 407 401 396 394 401 401 b 435 369 407 401 435 378 b 431 367 435 368 433 367 b 219 179 414 367 232 179 z m 67 206 b 57 179 61 206 57 193 b 43 153 57 165 51 153 b 32 118 36 153 32 139 b 124 40 32 51 61 40 b 196 76 163 40 189 53 b 221 85 206 106 208 85 b 282 126 232 85 251 99 b 378 200 314 156 358 189 b 408 229 396 210 408 222 b 415 253 408 238 403 246 b 421 231 426 260 428 253 b 407 165 415 213 410 183 b 371 31 401 122 376 71 b 343 -62 365 -1 343 -28 b 344 -89 343 -72 344 -81 b 333 -114 344 -99 343 -108 b 335 -125 317 -124 318 -125 b 339 -136 349 -125 350 -128 b 301 -225 324 -146 301 -204 b 331 -275 301 -240 331 -264 b 303 -310 331 -285 303 -300 b 353 -358 303 -329 333 -358 b 449 -283 401 -358 449 -312 b 456 -265 449 -272 439 -256 b 463 -268 458 -267 461 -268 b 465 -262 465 -268 465 -265 b 461 -235 465 -256 461 -243 b 468 -225 461 -229 463 -225 b 510 -119 479 -225 500 -172 b 579 175 524 -44 579 115 b 581 208 579 188 572 193 b 594 281 589 222 594 250 b 579 367 594 313 589 347 b 575 394 568 388 567 400 b 581 418 585 389 586 397 b 572 460 576 435 572 454 b 508 469 572 465 544 469 b 190 328 413 469 244 379 b 129 285 165 304 139 285 b 67 206 110 285 81 206 z "},"r":{"ha":524,"x_min":0,"x_max":0,"o":"m 29 -22 b 106 -118 29 -53 82 -118 b 182 -64 132 -118 168 -94 b 213 -14 190 -44 206 -21 b 261 139 233 6 261 96 b 271 179 261 158 264 179 b 310 338 286 179 304 285 b 442 433 313 361 435 418 b 490 443 444 439 467 443 b 590 469 550 443 533 469 b 628 493 619 469 628 472 b 599 553 628 528 624 553 b 410 501 522 553 461 532 b 342 469 379 483 350 469 b 329 539 335 469 329 496 b 331 593 329 556 331 578 b 267 676 331 663 311 676 b 263 675 264 676 263 676 l 263 667 b 251 646 263 661 261 656 b 229 601 235 629 247 601 b 208 568 219 601 210 586 b 169 475 206 531 169 510 b 172 450 169 468 172 457 b 168 443 172 446 171 443 b 103 258 157 443 106 268 b 100 235 100 250 100 243 l 100 222 b 88 192 100 210 99 199 b 68 147 79 186 71 167 b 47 57 63 99 47 110 b 29 -22 47 25 29 1 z "},"s":{"ha":522,"x_min":0,"x_max":0,"o":"m 246 3 b 229 17 239 3 238 17 b 211 6 225 17 219 14 b 113 -14 199 -7 154 -14 b 40 -3 81 -14 58 -3 b -6 -19 17 -3 -6 -18 b -29 -74 -6 -25 -29 -61 b 39 -154 -29 -106 28 -154 b 42 -150 42 -154 42 -153 b 53 -147 42 -137 46 -137 b 96 -171 63 -161 82 -171 b 108 -161 103 -171 108 -168 b 118 -161 108 -149 111 -149 b 194 -185 126 -174 169 -185 b 214 -178 206 -185 214 -183 b 247 -167 214 -169 231 -167 b 386 -126 275 -167 386 -149 b 431 -86 386 -121 407 -103 b 503 42 479 -53 503 -10 b 489 146 503 74 492 125 b 365 285 483 188 396 285 b 317 315 342 285 344 311 b 240 381 286 319 240 358 b 346 443 240 403 308 443 b 368 454 365 443 368 447 b 410 465 368 460 385 464 b 468 486 436 467 461 476 b 479 486 476 500 479 499 b 506 469 479 478 492 469 b 524 453 524 469 531 464 b 543 461 518 443 528 447 b 564 489 557 474 564 482 b 551 510 564 494 560 501 b 529 546 535 529 546 546 b 446 556 517 546 469 556 b 426 550 433 556 426 554 b 410 543 426 544 419 543 b 372 546 397 543 382 546 b 304 522 335 546 342 522 b 207 481 289 522 246 504 b 128 381 150 446 128 429 b 163 285 128 339 146 285 b 282 183 182 285 271 193 b 350 104 292 175 350 124 b 296 46 350 86 307 46 b 246 3 283 46 257 3 z "},"t":{"ha":404,"x_min":0,"x_max":0,"o":"m 150 -71 b 185 -119 150 -99 185 -96 b 274 -158 185 -140 232 -158 b 356 -143 296 -158 356 -144 b 299 -31 356 -124 314 -40 b 289 32 292 -25 289 1 b 306 135 289 74 294 122 b 313 153 313 144 317 153 b 311 158 311 153 311 154 b 356 364 311 224 353 364 b 396 483 361 364 388 478 b 394 500 417 496 394 492 b 596 588 394 510 596 575 b 593 604 596 597 572 597 b 590 635 604 607 604 617 b 528 658 578 653 563 658 b 482 657 515 658 493 657 b 453 669 460 657 453 660 b 475 844 453 706 474 793 b 501 886 476 879 501 842 b 488 919 501 904 494 919 b 458 942 471 919 492 942 b 411 919 436 942 415 932 b 350 836 403 897 399 890 b 317 781 332 817 317 790 b 296 742 317 769 308 753 b 204 607 260 707 269 607 b 179 600 186 607 179 614 b 139 581 179 594 161 585 b 92 540 107 575 92 557 b 160 496 92 518 115 496 l 196 496 l 169 407 b 138 253 156 358 140 289 b 117 169 135 217 125 179 b 110 153 111 164 110 158 b 125 110 110 139 125 126 b 113 56 125 101 113 71 b 118 46 113 50 114 46 b 132 19 125 46 132 33 b 146 -7 132 6 138 -7 b 156 -24 153 -7 156 -12 b 150 -71 156 -35 150 -60 z "},"u":{"ha":610,"x_min":0,"x_max":0,"o":"m 132 425 b 124 406 132 415 140 415 b 88 221 103 393 88 299 b 182 50 88 126 118 50 b 285 81 219 50 271 67 b 317 99 296 90 310 99 b 397 157 329 99 382 157 b 407 139 404 157 407 150 b 401 96 407 128 401 108 b 446 21 401 64 446 50 b 440 -18 446 11 440 -10 b 483 -36 440 -35 463 -36 l 489 -36 b 557 -10 524 -36 539 -29 b 583 146 579 15 581 19 b 597 239 585 193 590 235 b 610 292 604 243 610 267 b 624 338 610 317 617 338 b 636 376 631 338 636 354 b 569 465 636 419 600 465 b 457 419 538 465 457 429 b 425 346 457 397 425 376 b 372 271 425 329 403 297 b 318 211 343 246 318 218 b 207 157 318 196 235 157 b 190 215 190 157 190 183 b 217 369 190 269 201 346 b 232 403 229 388 236 403 l 232 404 b 281 524 232 418 281 504 b 257 556 281 539 268 556 b 250 554 254 556 251 556 b 219 565 235 544 231 565 b 132 425 181 565 132 443 z "},"v":{"ha":549,"x_min":0,"x_max":0,"o":"m 244 503 l 244 522 b 236 547 244 531 244 539 b 238 554 224 560 225 561 b 244 565 249 549 250 553 b 226 579 240 576 232 583 b 203 589 214 571 215 589 b 122 547 178 589 122 561 b 139 542 122 539 129 536 b 142 533 150 549 151 546 b 124 463 131 518 124 483 b 129 446 124 453 125 446 b 133 447 131 446 132 447 b 140 417 138 447 140 435 b 119 336 140 383 131 343 b 121 325 107 328 108 325 b 132 321 129 325 132 324 b 114 290 132 313 114 297 b 122 286 114 288 117 286 b 135 254 140 286 121 263 b 140 239 139 251 140 246 b 138 208 140 229 138 217 b 142 199 138 203 138 199 b 149 201 143 199 146 200 b 150 185 161 208 161 204 b 146 160 147 178 146 169 b 179 78 146 125 163 78 b 174 56 185 78 183 67 b 179 46 154 31 168 46 b 189 31 185 46 189 39 b 168 -39 189 7 168 -1 b 249 -101 168 -65 214 -101 b 308 -65 263 -101 300 -65 b 325 -67 313 -65 317 -67 b 344 -32 336 -67 344 -53 b 364 0 344 -12 353 0 b 392 36 375 0 388 17 b 426 94 396 56 413 82 b 440 117 440 107 447 117 b 443 126 433 117 435 121 b 536 278 460 138 518 267 b 547 303 549 286 547 294 b 579 374 547 325 579 343 b 600 393 579 406 588 393 b 611 446 604 393 611 422 b 597 482 611 465 607 482 b 417 242 575 482 546 440 b 310 94 346 131 321 94 b 293 193 294 94 293 169 l 293 211 b 286 286 293 239 290 271 b 294 306 279 310 281 314 b 290 326 307 299 306 304 b 269 408 278 344 269 381 b 244 503 269 454 244 471 z "},"w":{"ha":828,"x_min":0,"x_max":0,"o":"m 269 531 b 203 592 269 564 229 592 b 160 572 186 592 182 572 b 135 513 140 572 136 561 b 126 439 133 486 126 454 b 129 429 126 433 126 429 b 140 389 135 429 140 411 b 124 339 140 361 133 339 b 108 332 114 339 108 339 b 129 253 108 326 129 267 b 110 221 129 238 110 233 b 128 178 110 210 128 196 b 115 156 128 165 124 156 b 108 128 111 156 108 146 b 124 10 108 99 114 53 b 115 -26 129 -15 126 -26 b 115 -36 103 -26 103 -28 b 129 -76 124 -42 129 -60 l 129 -100 b 206 -179 129 -149 158 -179 b 256 -132 217 -179 256 -140 b 253 -131 256 -131 254 -131 b 261 -118 247 -131 250 -125 b 304 -4 285 -103 286 -25 b 308 18 308 1 308 10 l 308 29 b 311 39 308 35 308 39 b 325 74 318 39 324 54 b 350 125 326 93 338 115 b 361 160 372 142 361 143 b 401 249 361 186 392 249 b 440 53 411 249 421 206 b 474 -69 449 -15 469 -14 b 585 -164 478 -124 521 -164 b 640 -132 604 -164 617 -156 b 683 -100 658 -114 676 -100 b 692 -81 689 -100 692 -101 b 706 -53 692 -65 699 -53 b 735 -17 713 -53 726 -36 b 775 65 754 28 767 17 b 811 190 788 138 800 183 b 822 226 817 194 822 211 b 833 267 822 242 828 261 b 861 485 846 279 861 419 b 839 629 861 572 857 596 b 754 690 815 674 808 690 b 733 685 743 690 733 688 b 736 678 733 683 736 681 b 711 642 736 667 711 649 b 724 631 711 638 724 639 b 711 582 724 619 711 597 b 713 557 711 574 713 565 b 700 511 713 529 700 533 b 711 450 700 501 711 465 b 708 443 711 446 710 443 b 699 360 703 443 699 401 b 708 286 699 319 703 286 b 710 283 710 286 710 285 b 692 208 710 271 692 217 b 681 160 692 194 688 172 b 626 24 654 110 626 40 b 564 -78 626 0 579 -78 b 517 39 546 -78 535 10 b 410 354 482 94 463 354 b 343 286 383 354 346 301 b 314 239 338 261 314 265 b 285 171 314 229 296 171 b 272 208 279 171 272 196 b 286 272 272 232 286 251 b 265 364 286 301 265 328 b 278 404 265 386 269 404 b 281 410 279 404 281 406 b 260 493 281 429 260 471 b 269 531 260 508 269 518 z "},"x":{"ha":664,"x_min":0,"x_max":0,"o":"m 188 424 b 225 364 199 424 213 364 b 238 340 232 364 238 353 b 303 228 238 314 303 249 b 244 151 303 221 276 185 b 138 22 211 117 164 60 b 72 -56 111 -15 82 -50 b 56 -99 63 -61 56 -81 b 75 -128 56 -121 60 -128 b 107 -115 94 -128 107 -122 b 186 -17 107 -101 186 -26 b 256 65 186 -4 256 49 b 269 78 256 72 253 78 b 289 92 281 78 289 85 b 343 146 289 110 328 146 b 349 131 350 146 356 131 l 347 129 b 419 -6 347 113 419 11 b 439 -26 419 -17 428 -26 b 465 -51 449 -26 461 -39 b 540 -97 472 -72 519 -97 b 550 -90 546 -97 550 -96 b 579 -78 550 -85 564 -78 b 599 -75 593 -78 599 -78 b 582 -57 599 -71 582 -64 b 592 -49 582 -54 585 -51 b 583 -31 613 -42 583 -42 b 599 21 583 -17 599 10 b 550 151 599 42 550 143 b 481 285 550 183 481 247 b 556 390 481 306 556 368 l 556 393 b 568 396 546 408 561 396 b 639 443 590 396 621 443 b 650 463 651 443 650 451 b 681 489 650 479 681 465 b 692 508 681 500 686 508 b 781 608 718 508 781 574 b 728 661 781 639 753 661 b 693 640 714 661 701 654 b 560 493 686 628 626 563 l 436 367 l 389 424 b 342 496 363 454 342 488 b 199 661 342 513 199 644 b 131 682 199 672 163 682 b 85 614 90 682 85 675 b 122 519 85 563 92 547 b 153 481 140 503 153 486 b 149 472 153 478 149 476 b 182 422 149 456 169 422 b 188 424 183 422 186 424 z "},"y":{"ha":658,"x_min":0,"x_max":0,"o":"m 588 63 b 606 104 588 76 606 99 b 650 242 607 124 650 213 b 660 274 650 258 654 274 b 690 339 675 274 690 313 b 688 356 690 346 690 351 b 622 467 667 394 682 467 b 501 338 599 467 501 363 b 482 313 501 331 492 319 b 475 281 465 301 475 294 b 422 176 475 258 447 203 b 313 104 397 150 328 104 b 264 150 293 104 264 133 b 260 176 264 161 274 168 b 221 378 238 190 235 378 b 215 479 217 378 215 421 l 215 551 b 196 660 215 626 210 649 b 167 675 183 669 174 675 b 129 514 131 675 129 596 l 129 483 b 143 274 129 406 135 319 b 293 44 165 161 171 44 b 315 47 303 44 311 44 b 319 42 324 53 325 51 b 331 26 314 33 319 26 b 350 38 342 26 350 31 b 393 60 350 46 376 60 b 401 49 399 60 401 56 b 390 -35 401 28 390 -21 b 379 -47 390 -49 386 -47 b 347 -222 372 -47 347 -207 b 351 -235 347 -229 349 -235 b 378 -261 358 -235 369 -246 b 372 -279 394 -290 383 -279 b 364 -297 367 -279 364 -286 b 415 -360 364 -328 385 -360 b 528 -189 461 -360 528 -250 b 529 -156 528 -178 519 -156 b 565 -47 542 -156 565 -81 b 563 -26 565 -37 563 -35 b 592 53 563 -11 592 38 b 588 63 592 57 588 58 z "},"z":{"ha":610,"x_min":0,"x_max":0,"o":"m 40 -21 b 64 -4 46 -21 53 -4 b 101 -53 81 -4 101 -28 b 396 -108 101 -101 331 -108 b 522 -93 458 -108 510 -104 b 593 -62 542 -76 593 -96 b 522 0 593 -37 556 0 b 233 63 497 0 233 49 b 264 106 233 75 251 103 b 411 218 288 111 338 149 b 499 286 451 256 492 286 b 575 364 518 286 553 364 b 661 482 600 364 661 449 b 642 497 661 508 653 497 b 639 503 639 497 639 500 b 644 538 639 511 644 528 b 638 547 644 543 642 547 b 592 596 617 547 622 596 b 497 565 561 596 513 585 b 483 554 490 557 488 554 b 458 563 476 554 472 563 b 351 542 435 563 372 542 b 336 539 343 542 336 551 b 275 522 336 532 308 524 b 192 493 233 519 207 511 b 163 485 175 474 168 472 b 156 472 160 493 156 488 b 140 443 156 457 147 443 b 128 429 132 443 128 438 b 147 417 128 422 136 417 b 167 426 158 417 167 421 b 229 458 167 439 210 458 b 250 451 240 458 238 451 b 336 474 269 451 318 474 b 371 483 349 474 353 468 b 382 479 392 500 382 489 b 426 454 382 463 426 464 b 376 439 426 446 393 439 b 368 440 374 439 369 440 b 365 433 354 447 365 439 b 301 364 365 415 321 364 b 264 328 279 364 293 333 b 199 286 235 322 226 286 b 181 265 189 286 181 276 b 171 251 181 249 176 251 b 53 133 157 251 86 183 b 26 32 36 110 26 67 b 40 -21 26 17 31 -21 z "},"{":{"ha":375,"x_min":0,"x_max":0,"o":"m 358 -207 b 293 -172 358 -187 317 -172 b 271 -174 286 -172 276 -174 b 238 -150 244 -174 268 -160 b 215 -108 218 -144 215 -128 b 197 -28 215 -76 197 -82 b 203 117 197 1 203 75 b 197 181 203 149 201 174 b 206 188 186 201 196 188 b 221 229 214 188 221 208 b 196 307 221 265 196 276 b 214 354 196 324 201 340 b 221 378 228 368 231 378 b 207 386 211 378 207 382 b 236 407 207 393 219 403 b 278 488 274 417 256 468 b 335 768 299 507 318 768 b 356 842 339 768 347 801 b 393 938 364 882 381 925 b 417 975 406 950 415 967 b 447 1001 418 997 447 976 b 457 1008 447 1007 451 1008 b 485 1004 465 1008 476 1004 b 521 1010 496 1004 510 1007 l 557 1018 l 531 1042 b 513 1074 511 1058 513 1065 b 492 1078 513 1076 504 1078 b 340 1004 426 1078 344 1044 b 329 989 340 996 335 989 b 251 826 313 989 263 883 b 197 567 247 804 208 567 b 110 404 185 567 129 404 b 82 369 90 404 82 390 b 111 243 82 326 111 297 b 93 -40 111 190 93 19 b 144 -210 93 -124 108 -165 b 228 -254 175 -247 186 -254 b 358 -207 281 -254 358 -243 z "},"|":{"ha":190,"x_min":0,"x_max":0,"o":"m 265 1090 b 200 863 243 1064 210 950 b 158 636 186 735 176 797 b 97 196 139 451 122 376 b 44 -147 75 38 44 -4 b 49 -169 44 -161 46 -169 b 56 -182 54 -169 56 -175 b 53 -211 56 -192 53 -203 b 57 -219 53 -215 54 -219 b 147 18 100 -219 136 -21 b 200 338 156 46 185 315 b 196 351 206 346 204 351 b 194 368 188 351 188 357 b 222 569 210 389 222 506 b 215 613 222 594 221 613 b 221 625 206 613 207 617 b 247 679 232 632 244 656 b 294 983 274 874 290 979 b 299 1014 299 986 299 999 b 286 1081 299 1043 294 1081 b 282 1094 278 1081 276 1086 b 265 1090 296 1114 282 1110 z "},"}":{"ha":369,"x_min":0,"x_max":0,"o":"m 163 1031 b 228 997 163 1011 204 997 b 250 999 235 997 244 999 b 283 974 276 999 253 983 b 306 933 303 968 306 953 b 324 851 306 901 324 906 b 318 707 324 822 318 749 b 324 643 318 675 319 650 b 315 636 335 622 325 636 b 301 594 307 636 301 615 b 326 517 301 558 326 547 b 307 469 326 500 319 483 b 300 446 293 456 290 446 b 314 439 310 446 314 443 b 286 417 314 432 303 421 b 243 338 249 407 265 357 b 188 56 222 318 204 56 b 165 -17 183 56 174 24 b 129 -112 157 -57 142 -100 b 106 -151 117 -125 107 -143 b 74 -176 104 -174 74 -151 b 65 -185 74 -182 71 -185 b 38 -181 57 -185 46 -181 b 1 -185 26 -181 13 -182 l -36 -194 l -10 -218 b 8 -250 10 -235 8 -242 b 31 -254 8 -253 18 -254 b 181 -181 96 -254 176 -221 b 192 -165 181 -172 186 -165 b 269 -3 208 -165 258 -60 b 325 257 274 19 314 257 b 411 421 338 257 392 421 b 440 454 431 421 440 433 b 410 581 440 497 410 526 b 429 864 410 633 429 804 b 376 1033 429 947 413 989 b 293 1078 346 1071 335 1078 b 163 1031 240 1078 163 1067 z "},"~":{"ha":518,"x_min":0,"x_max":0,"o":"m 296 408 b 289 418 288 408 289 414 b 267 429 289 424 288 429 b 218 449 238 429 232 449 b 197 440 213 449 206 446 b 186 439 179 428 176 428 b 196 453 192 446 196 451 l 194 454 b 161 433 192 454 181 447 b 90 324 136 415 90 363 b 153 239 90 283 124 239 b 211 350 190 239 175 350 b 308 247 265 350 279 247 b 338 222 314 247 328 235 b 418 190 353 201 385 190 b 536 340 497 190 536 267 b 507 385 536 374 529 385 b 426 358 492 385 433 358 b 400 274 425 358 410 274 b 371 325 390 274 385 314 b 349 378 351 342 371 378 b 315 411 319 378 342 411 b 296 408 311 411 300 408 z "}}}
